<?xml version="1.0" standalone="no"?>
<!DOCTYPE svg PUBLIC "-//W3C//DTD SVG 20010904//EN"
 "http://www.w3.org/TR/2001/REC-SVG-20010904/DTD/svg10.dtd">
<svg version="1.0" xmlns="http://www.w3.org/2000/svg"
 width="1000.000000pt" height="600.000000pt" viewBox="0 0 1000.000000 600.000000"
 preserveAspectRatio="xMidYMid meet">

<g transform="translate(0.000000,600.000000) scale(0.100000,-0.100000)"
fill="#000000" stroke="none">
<path d="M0 5981 c0 -15 13 -23 55 -35 119 -35 116 -36 129 27 l6 27 -95 0
c-87 0 -95 -2 -95 -19z"/>
<path d="M280 5990 c0 -6 7 -10 15 -10 8 0 15 -6 15 -12 0 -9 4 -8 10 2 14 21
13 -5 0 -31 -14 -25 -30 -24 -30 1 0 11 -4 20 -9 20 -11 0 -52 -214 -40 -218
4 -2 2 -13 -5 -25 -8 -12 -16 -44 -20 -72 -12 -100 -35 -252 -55 -365 -11 -63
-25 -149 -31 -190 -6 -41 -12 -88 -15 -105 -13 -87 -36 -196 -50 -238 -9 -26
-13 -51 -10 -56 3 -5 1 -11 -4 -13 -8 -3 -22 -128 -21 -187 0 -13 -6 -31 -12
-39 -9 -10 -14 -61 -16 -147 l-4 -132 201 -194 c111 -107 222 -206 247 -221
41 -23 93 -37 159 -43 11 -2 74 -12 140 -25 66 -12 152 -26 190 -30 81 -10
191 -28 390 -65 142 -26 413 -71 605 -101 58 -9 148 -25 200 -36 192 -38 483
-86 496 -81 8 3 14 15 15 27 0 11 3 30 5 41 3 11 10 65 17 120 9 78 15 100 27
98 8 -1 65 -11 125 -24 l110 -22 60 -62 c33 -34 102 -106 153 -161 98 -104
151 -144 191 -144 24 0 307 -49 556 -95 230 -44 544 -96 655 -109 14 -2 32 1
40 5 48 25 83 31 92 16 4 -7 8 23 8 66 0 67 2 77 18 77 14 0 15 2 2 10 -8 5
-10 10 -5 10 20 0 31 44 18 70 -7 14 -10 35 -7 47 5 18 2 23 -12 24 -18 0 -17
1 1 9 13 6 15 9 5 9 -11 1 -12 3 -3 9 20 13 0 30 -41 36 -76 12 -88 17 -75 32
6 8 18 14 25 14 8 0 14 8 14 17 0 13 -3 14 -12 5 -7 -7 -29 -12 -49 -12 -26 0
-39 -5 -44 -17 -6 -16 -8 -16 -24 5 -21 28 -91 48 -91 26 0 -20 -18 -17 -24 4
-5 13 -28 22 -93 35 -102 20 -106 21 -193 41 -141 33 -432 96 -441 96 -5 0 -9
-7 -9 -15 0 -22 -21 -18 -27 5 -3 10 -13 22 -22 24 -31 10 -226 54 -266 61
-70 11 -77 23 -69 104 3 39 12 75 19 81 10 8 11 1 7 -35 -3 -30 -1 -45 7 -45
6 0 11 8 11 18 1 45 56 66 71 26 6 -18 7 -18 14 -1 9 21 25 23 25 2 0 -8 6
-12 14 -9 8 3 16 -2 19 -13 4 -16 5 -16 6 0 1 17 40 25 55 10 4 -4 19 -8 34
-8 15 0 33 -4 40 -8 6 -5 12 -6 12 -2 0 3 10 0 23 -7 12 -6 45 -13 72 -14 28
-1 70 -9 95 -17 25 -8 68 -18 95 -22 28 -3 84 -15 127 -26 85 -21 98 -23 98
-11 0 8 -117 39 -405 107 -82 20 -171 41 -197 47 l-47 12 -3 90 -3 90 -33 10
c-28 8 -32 13 -33 45 l-1 36 -11 -33 c-7 -24 -14 -31 -26 -26 -9 3 -36 10 -61
15 -25 5 -50 16 -57 25 -7 10 -13 12 -18 4 -3 -5 -10 -8 -15 -5 -15 9 -20 -26
-20 -134 0 -96 2 -110 21 -127 11 -10 20 -14 19 -9 -5 24 1 27 19 11 16 -15
18 -27 14 -74 -7 -67 -8 -69 -28 -52 -17 14 -20 3 -6 -20 14 -21 3 -31 -20
-17 -16 10 -21 9 -28 -1 -4 -7 -15 -10 -24 -6 -11 4 -47 -15 -104 -53 -49 -33
-95 -62 -104 -65 -17 -7 -88 4 -192 28 l-68 16 7 117 c3 64 7 188 9 276 2 88
8 230 14 315 8 122 40 674 41 701 0 3 -45 21 -100 39 -55 18 -98 35 -96 38 3
2 51 -10 108 -28 57 -17 124 -38 149 -46 63 -19 66 -18 71 16 5 32 -7 42 -15
13 -4 -14 -5 -13 -6 4 -1 19 30 98 88 225 11 26 21 64 22 85 0 35 17 93 18 66
2 -31 21 -7 52 65 26 59 50 93 101 145 37 38 72 66 78 62 5 -3 10 -22 10 -41
0 -25 4 -34 16 -34 13 0 15 -7 10 -32 -15 -79 -38 -338 -38 -415 1 -31 -3 -43
-16 -46 -14 -4 -14 -5 2 -6 18 -1 19 -9 12 -163 -3 -90 -7 -300 -7 -466 -1
-264 1 -306 14 -320 15 -14 17 -13 26 9 10 23 34 215 47 373 4 49 10 73 15 65
5 -8 9 -28 9 -46 0 -17 4 -33 9 -35 6 -2 11 -74 13 -160 1 -87 6 -154 9 -150
4 4 12 57 18 117 18 174 31 278 36 284 8 7 5 -104 -6 -258 -6 -95 -6 -148 0
-154 12 -12 14 -2 36 138 9 55 18 109 20 120 2 11 8 43 13 70 l10 50 1 -60 c1
-33 5 -78 9 -100 8 -39 8 -38 21 40 15 90 35 139 25 61 -4 -32 -3 -47 3 -43 6
4 14 27 17 52 4 25 11 43 17 40 5 -4 9 -1 9 4 0 6 5 11 10 11 6 0 10 -14 10
-32 l0 -31 25 29 25 29 1 -35 2 -35 7 35 7 35 3 -40 3 -40 7 35 c7 32 8 31 9
-20 3 -65 19 -114 21 -65 l2 30 10 -35 11 -35 9 28 c15 44 42 31 49 -23 4 -28
7 -35 7 -17 1 17 8 27 18 27 10 0 14 6 10 15 -3 8 -2 15 3 15 5 0 12 15 16 33
l7 32 12 -33 c13 -38 61 -68 81 -52 10 8 17 5 29 -12 9 -12 16 -27 16 -33 0
-20 65 -105 78 -100 6 2 12 0 12 -6 0 -6 4 -7 10 -4 6 4 10 -9 10 -31 0 -31 2
-35 15 -24 12 10 15 7 21 -15 8 -32 40 -46 68 -31 37 19 74 57 87 87 10 27 13
28 24 12 11 -15 15 -15 29 -4 22 18 20 29 -6 33 -30 4 -34 31 -10 65 20 28 28
65 37 182 l6 64 -31 -6 c-35 -7 -37 -1 -10 33 11 14 20 28 20 32 0 5 26 43 58
86 32 43 75 108 97 145 22 37 45 67 51 67 23 0 59 -64 65 -115 l6 -50 2 58 c0
31 -2 57 -6 57 -5 0 -13 11 -20 25 -10 22 -9 25 4 23 19 -4 25 23 17 80 -4 33
-11 45 -28 52 -13 5 -26 16 -30 25 -4 11 -2 14 7 8 6 -4 32 -15 57 -23 l45
-15 3 -91 3 -91 102 -38 c56 -21 110 -45 119 -52 14 -13 18 -12 28 6 9 17 58
51 74 51 2 0 -5 -18 -16 -41 -24 -50 -21 -83 9 -87 19 -3 23 3 28 42 4 25 11
46 16 46 5 0 9 12 9 28 -1 25 -2 25 -20 -13 -11 -22 -19 -32 -20 -23 0 9 5 20
10 23 6 3 10 15 10 25 0 11 9 24 19 30 26 13 32 13 30 -2 -4 -34 2 -48 21 -48
11 0 20 -4 20 -10 0 -5 -6 -7 -12 -5 -10 4 -13 -27 -13 -135 0 -83 -5 -144
-11 -150 -7 -7 -9 4 -7 36 3 31 0 45 -8 42 -14 -5 -22 -98 -9 -98 6 0 10 -7
10 -15 0 -8 -4 -15 -10 -15 -5 0 -10 -11 -10 -25 0 -14 4 -25 9 -25 13 0 7
-46 -8 -64 -9 -11 -9 -15 1 -19 7 -3 8 -6 3 -6 -12 -1 -8 -88 6 -117 6 -11 9
-24 8 -30 -3 -19 1 -34 11 -34 6 0 10 7 10 15 0 25 17 17 24 -11 4 -14 7 -73
7 -132 0 -93 1 -103 14 -85 7 11 16 42 18 69 3 39 5 44 11 27 10 -29 41 -31
33 -3 -3 11 -1 20 4 20 5 0 9 -19 10 -42 0 -39 1 -41 10 -18 10 23 11 24 21 7
13 -23 3 -110 -21 -178 -15 -46 -16 -59 -3 -137 7 -48 16 -101 18 -119 4 -24
12 -34 36 -42 64 -23 62 -32 55 193 -5 165 -4 206 7 215 17 14 23 -37 32 -276
l7 -162 31 -10 c17 -5 65 -18 106 -28 42 -10 81 -26 88 -35 7 -10 17 -18 22
-18 14 0 21 36 11 61 l-9 24 -10 -25 c-8 -22 -10 -21 -16 22 -4 26 -6 71 -6
100 2 61 -9 218 -16 229 -10 16 24 69 112 174 50 61 110 130 133 155 24 25 72
84 108 133 40 51 73 87 84 87 10 0 29 -15 43 -32 14 -18 26 -27 26 -20 0 7 -7
20 -15 28 -19 20 -19 35 0 28 11 -4 13 -2 9 9 -3 8 -1 17 3 20 21 13 34 -13
37 -74 7 -109 19 -201 25 -191 3 5 20 27 38 48 18 22 40 49 50 62 18 23 18 22
17 -46 0 -47 4 -73 14 -82 13 -12 14 -7 7 36 -12 77 -5 154 15 154 5 0 10 -11
12 -25 2 -14 8 -25 13 -24 6 0 9 5 8 10 -3 9 13 30 59 79 16 15 28 38 28 49 0
14 12 29 35 42 33 20 35 23 29 62 -8 51 -10 53 -29 37 -10 -8 -15 -9 -15 -1 0
6 -7 11 -15 11 -8 0 -15 -5 -15 -11 0 -18 -52 -1 -218 71 -362 156 -420 180
-437 180 -20 0 -78 33 -111 62 -19 17 -22 17 -27 4 -4 -10 -19 -16 -40 -16
-21 0 -41 -7 -51 -19 -10 -11 -34 -27 -53 -36 -38 -18 -31 -20 -169 35 l-82
33 -5 46 c-5 43 -10 328 -11 773 -1 154 -4 188 -15 188 -12 0 -13 -21 -8 -124
4 -88 2 -127 -6 -136 -9 -10 -9 -14 1 -17 15 -6 17 -199 2 -208 -6 -4 -10 11
-11 37 -1 36 -2 39 -9 18 -4 -14 -8 -51 -9 -83 -1 -62 -19 -243 -27 -266 -3
-9 -8 -10 -17 -3 -6 5 -32 15 -57 22 -25 6 -58 18 -75 25 -16 8 -69 30 -116
49 -47 19 -116 49 -152 66 -37 17 -98 44 -135 59 -37 15 -142 60 -234 100 -92
39 -171 71 -176 71 -20 0 -42 39 -42 73 0 34 2 37 28 37 15 0 32 -4 38 -10 15
-15 156 -70 165 -64 5 3 9 84 9 180 l0 174 -184 0 -184 0 -4 -97 c-3 -54 -1
-110 3 -125 4 -16 3 -30 -2 -34 -5 -3 -8 -17 -7 -32 2 -18 -2 -27 -12 -28 -8
0 -21 -2 -28 -2 -7 -1 -39 -30 -71 -63 -51 -55 -60 -60 -79 -50 -11 6 -29 11
-39 11 -10 0 -45 13 -78 29 -33 16 -77 37 -98 45 l-37 15 6 153 c3 84 7 159
10 166 5 16 -198 17 -225 0 -14 -8 -29 -8 -64 0 -30 8 -155 12 -356 12 -270 0
-311 -2 -311 -15 0 -8 5 -15 12 -15 15 0 3 -182 -14 -213 -12 -22 -12 -22 -18
8 -6 28 -7 27 -13 -15 -7 -50 -28 -339 -32 -440 -2 -36 -6 -105 -9 -155 -14
-190 -27 -408 -37 -598 -5 -109 -10 -201 -11 -205 -1 -4 3 -16 7 -26 6 -13 4
-21 -3 -24 -18 -6 -15 -62 2 -62 10 0 16 13 19 38 2 23 4 13 5 -28 1 -36 -2
-83 -6 -105 -7 -39 -7 -38 -12 25 l-5 65 -14 -60 c-20 -89 -32 -117 -66 -152
-31 -30 -35 -32 -101 -29 -38 2 -137 19 -220 39 -83 20 -164 38 -180 41 -67
12 -546 119 -849 190 -82 19 -179 40 -215 47 -36 6 -94 20 -130 30 -57 15
-175 41 -318 70 -70 14 -83 25 -71 57 6 15 11 51 11 79 1 52 1 53 36 63 41 11
58 4 41 -17 -11 -12 -10 -14 2 -12 7 2 34 -2 59 -8 25 -6 74 -16 109 -22 36
-6 67 -14 70 -18 15 -20 68 -38 110 -36 30 1 52 -4 64 -15 16 -14 25 -14 80
-3 59 12 62 12 80 -10 16 -21 22 -22 57 -12 31 8 58 6 127 -8 49 -10 98 -23
111 -29 13 -5 34 -10 48 -10 14 0 23 -4 20 -9 -3 -5 18 -9 47 -10 30 0 67 -6
83 -12 16 -7 32 -11 37 -11 7 2 151 -31 317 -72 47 -12 86 -27 86 -34 1 -7 2
-23 3 -37 1 -16 7 -25 17 -25 12 0 15 7 12 31 -4 22 0 33 14 40 31 17 20 25
-54 42 -40 9 -147 35 -238 57 -91 23 -192 47 -225 54 -299 68 -420 97 -425
103 -4 5 0 53 9 108 l16 100 40 -1 c22 -1 82 -12 133 -26 94 -25 105 -24 115
2 4 12 6 11 6 -2 1 -10 6 -18 12 -18 6 0 9 9 6 20 -3 11 -1 23 4 26 5 3 10 -3
11 -13 2 -33 3 -38 11 -50 13 -20 24 -15 31 12 4 14 13 25 21 25 24 0 32 33
54 245 30 285 30 282 48 289 9 4 18 5 20 2 3 -2 -9 -141 -25 -308 -28 -292
-28 -304 -11 -322 10 -11 22 -16 26 -12 4 4 1 13 -7 19 -8 7 -14 23 -12 37 5
49 13 71 22 65 10 -6 14 8 28 90 8 43 9 36 10 -57 0 -59 6 -117 12 -128 10
-20 10 -21 -8 -16 -11 4 -23 2 -27 -4 -10 -16 -8 -17 65 -24 36 -4 59 -3 52 2
-9 6 -10 16 -3 38 5 16 12 54 16 84 7 59 48 135 91 169 13 10 24 27 24 38 0
10 6 27 14 38 7 11 21 46 31 78 17 54 29 70 37 46 2 -7 12 -7 30 0 32 12 38 1
27 -46 -7 -36 -3 -41 15 -19 6 8 20 16 31 18 16 2 21 -4 26 -37 l6 -40 2 46
c1 57 15 97 57 169 153 263 333 586 354 638 15 34 30 65 34 70 4 4 19 -6 32
-23 l24 -30 -9 31 c-5 17 -17 44 -26 60 -17 28 -17 28 14 -4 30 -31 31 -31 33
-10 4 59 2 84 -7 90 -16 12 -2225 9 -2225 -2z m3040 -247 c0 -14 -34 -43 -49
-42 -10 0 -8 3 7 9 12 5 22 16 22 25 0 8 5 15 10 15 6 0 10 -3 10 -7z m-592
-219 c13 -4 22 -2 22 5 0 6 5 11 10 11 11 0 14 -83 4 -93 -5 -5 -38 11 -64 31
-2 1 2 7 10 12 10 6 -1 15 -43 34 -69 30 -74 40 -9 20 26 -8 57 -17 70 -20z
m12 -100 c0 -17 -22 -14 -28 4 -2 7 3 12 12 12 9 0 16 -7 16 -16z m2407 -176
c-3 -8 -6 -5 -6 6 -1 11 2 17 5 13 3 -3 4 -12 1 -19z m-3557 -138 c0 -22 -4
-40 -10 -40 -5 0 -10 -13 -10 -30 0 -16 -4 -30 -10 -30 -5 0 -10 6 -10 13 0 6
-3 22 -6 35 -5 16 -2 22 10 22 12 0 16 9 16 35 0 19 5 35 10 35 6 0 10 -18 10
-40z m-1420 -120 c0 -5 -4 -10 -10 -10 -5 0 -10 5 -10 10 0 6 5 10 10 10 6 0
10 -4 10 -10z m3137 -232 c-3 -7 -5 -2 -5 12 0 14 2 19 5 13 2 -7 2 -19 0 -25z
m2791 -159 c3 -32 3 -33 -12 -14 -19 24 -21 58 -3 53 6 -3 13 -20 15 -39z
m-998 -4 c0 -8 -4 -15 -10 -15 -5 0 -10 7 -10 15 0 8 5 15 10 15 6 0 10 -7 10
-15z m6 -59 c9 -19 8 -28 -6 -46 -19 -25 -37 -12 -22 16 5 9 7 25 5 35 -7 27
10 23 23 -5z m-5011 -39 c3 -40 0 -48 -22 -62 -24 -16 -25 -16 -18 7 4 12 12
28 17 35 5 7 7 17 3 23 -7 11 4 55 12 47 2 -3 6 -26 8 -50z m3992 -89 c-3 -7
-5 -2 -5 12 0 14 2 19 5 13 2 -7 2 -19 0 -25z m1010 10 c-3 -8 -6 -5 -6 6 -1
11 2 17 5 13 3 -3 4 -12 1 -19z m-4947 2 c0 -5 -5 -10 -11 -10 -5 0 -7 5 -4
10 3 6 8 10 11 10 2 0 4 -4 4 -10z m4955 -70 c-3 -5 -10 -10 -16 -10 -5 0 -9
5 -9 10 0 6 7 10 16 10 8 0 12 -4 9 -10z m-2635 -285 c0 -14 -4 -25 -10 -25
-8 0 -8 23 -1 48 4 12 11 -3 11 -23z m-43 -91 c10 -9 8 -13 -9 -17 -21 -6 -51
20 -42 35 6 9 35 -1 51 -18z m-4 -51 c-7 -2 -19 -2 -25 0 -7 3 -2 5 12 5 14 0
19 -2 13 -5z"/>
<path d="M4362 5808 l3 -193 38 -19 c21 -10 40 -17 42 -15 2 3 8 67 14 144 12
162 20 215 32 215 5 0 9 -12 9 -26 0 -14 4 -23 9 -20 4 3 22 0 40 -7 28 -10
31 -15 31 -57 1 -40 2 -43 14 -27 7 9 16 17 20 17 3 0 6 -37 7 -82 1 -49 4
-73 8 -58 4 14 16 29 26 34 25 11 100 103 109 134 9 26 41 47 75 47 38 0 36
22 -4 29 -41 8 -42 10 -15 38 10 12 17 25 14 30 -3 4 -111 8 -240 8 l-235 0 3
-192z"/>
<path d="M4908 5969 c-20 -18 -25 -26 -13 -21 21 11 63 52 52 52 -4 0 -21 -14
-39 -31z"/>
<path d="M5086 5948 c3 -29 5 -66 5 -82 -1 -15 3 -34 10 -42 6 -7 8 -22 5 -32
-4 -11 -2 -30 3 -43 l10 -24 0 25 c1 14 3 76 6 138 l5 112 -24 0 c-24 0 -24
-2 -20 -52z"/>
<path d="M5534 5938 c3 -35 8 -133 11 -218 6 -159 23 -402 30 -408 2 -2 14 4
28 13 30 19 38 11 48 -50 5 -32 7 -24 8 38 1 62 5 84 22 106 13 18 18 34 13
43 -4 7 1 6 12 -4 10 -9 35 -23 56 -31 28 -12 38 -23 43 -47 5 -23 10 -29 15
-19 6 9 10 6 14 -12 10 -47 28 -205 33 -296 3 -51 9 -93 14 -93 11 0 11 76 1
177 -4 39 -4 69 0 67 4 -3 9 5 9 18 1 17 3 18 6 5 2 -9 9 -15 14 -12 5 4 9 1
9 -5 0 -7 6 -10 14 -7 8 3 17 1 19 -6 2 -7 26 7 59 35 44 38 58 57 67 94 7 25
19 56 27 69 10 15 14 41 12 77 -3 49 -5 53 -26 50 l-24 -2 23 37 c12 21 32 49
44 63 17 19 80 104 131 178 1 2 12 -1 23 -7 33 -18 48 -110 26 -163 -3 -9 -2
-25 3 -35 5 -10 7 -24 4 -32 -3 -9 1 -11 17 -6 30 9 27 -13 -6 -39 -51 -39
-104 -89 -99 -93 2 -3 23 8 46 23 45 30 58 25 61 -26 1 -14 2 -29 4 -35 1 -5
3 -16 3 -22 1 -7 7 -13 13 -13 8 0 10 15 6 45 -5 34 -3 47 7 51 8 3 14 21 14
45 1 30 11 55 38 95 53 77 63 84 82 56 8 -12 20 -22 27 -22 13 0 57 -148 55
-185 -1 -11 -1 -24 -2 -30 0 -5 5 -39 11 -75 6 -36 12 -92 13 -125 2 -56 25
-121 48 -135 6 -4 6 -17 -2 -38 -10 -27 -10 -34 1 -41 8 -5 10 -14 6 -21 -4
-7 -2 -16 6 -21 10 -6 11 -9 2 -9 -8 0 -13 -13 -13 -32 0 -25 3 -29 10 -18 7
11 8 5 4 -20 -3 -19 -8 -41 -10 -49 -2 -7 0 -19 6 -26 11 -14 14 -99 8 -240
l-3 -80 -46 -23 -46 -23 -54 22 c-115 46 -129 49 -129 34 0 -7 7 -20 15 -29
13 -13 13 -16 0 -29 -10 -11 -13 -25 -9 -46 4 -18 2 -37 -5 -45 -18 -22 -23
-161 -11 -291 7 -66 13 -136 15 -155 1 -19 3 -39 5 -45 1 -5 4 -39 5 -75 5
-95 14 -130 32 -123 13 5 15 0 11 -25 -3 -23 -1 -32 9 -32 8 0 11 4 8 10 -3 5
-6 40 -7 77 -1 56 1 69 15 71 9 2 17 10 17 18 0 8 4 13 9 10 5 -3 12 1 15 10
5 13 9 14 21 4 8 -7 15 -19 15 -26 0 -8 5 -14 10 -14 6 0 10 8 10 18 0 23 22
-19 39 -77 11 -37 15 -42 23 -28 5 10 13 15 19 12 5 -4 9 0 9 7 0 7 54 72 121
143 66 72 151 165 187 208 37 42 72 77 79 77 6 0 23 -13 36 -30 32 -38 40 -38
21 0 -12 23 -13 34 -4 51 26 48 0 77 -105 119 -33 14 -53 26 -44 28 9 1 45
-10 80 -27 35 -16 71 -31 81 -34 12 -4 18 -24 23 -84 3 -43 9 -91 12 -106 l5
-28 48 45 c27 25 60 48 74 52 20 5 26 13 28 42 3 31 8 37 43 49 54 19 59 26
41 62 -14 26 -20 29 -39 22 -17 -7 -65 8 -212 68 -105 43 -216 89 -248 104
-32 15 -61 27 -66 27 -18 0 -64 45 -77 74 -10 23 -13 26 -14 11 0 -15 -2 -17
-9 -6 -5 7 -8 75 -8 150 0 76 -4 144 -8 152 -10 15 -12 22 -20 91 -3 27 -1 49
5 53 5 3 10 0 11 -7 1 -15 3 -30 18 -113 6 -33 14 -84 18 -114 l8 -55 25 37
c14 20 30 35 35 34 6 -2 15 -54 21 -116 10 -100 14 -115 37 -139 25 -24 27
-25 33 -6 14 45 29 64 57 73 48 17 56 37 57 134 0 68 3 89 15 93 18 7 20 31 3
37 -21 6 -12 206 10 234 87 110 157 193 164 193 4 0 8 -13 8 -29 0 -17 5 -33
10 -36 6 -3 10 -1 10 5 0 7 7 9 16 6 12 -5 15 -2 9 11 -15 37 -17 53 -6 53 6
0 16 10 21 23 8 20 9 21 10 2 1 -11 3 -31 5 -45 2 -14 6 -51 10 -82 4 -32 10
-58 15 -58 5 0 19 14 31 31 12 17 42 39 66 50 54 23 70 24 54 5 -10 -11 -9
-16 4 -23 16 -9 11 -43 -6 -43 -14 0 -11 -26 5 -39 7 -6 16 -42 20 -83 3 -39
11 -77 16 -83 6 -7 8 -19 4 -28 -3 -8 0 -18 6 -22 8 -5 10 15 6 72 l-5 78 14
-75 c11 -56 55 -413 55 -444 0 -3 -7 -3 -15 0 -8 4 -15 13 -15 22 0 8 -3 13
-6 10 -8 -9 7 -98 17 -98 5 0 9 12 10 28 0 23 1 24 8 7 8 -19 8 -19 15 3 4 13
49 64 100 115 50 51 126 130 167 176 71 78 77 82 92 66 25 -25 33 -66 15 -79
-15 -12 -16 -47 -1 -176 4 -36 7 -72 6 -80 -2 -16 21 -158 36 -230 21 -95 23
-100 43 -100 14 0 18 5 14 18 -3 9 -6 53 -7 97 -2 111 -17 295 -31 388 -15 98
-4 116 43 71 21 -19 33 -25 36 -16 8 22 38 12 60 -21 18 -26 28 -71 49 -227
14 -107 29 -203 33 -213 5 -16 28 3 128 107 68 69 127 126 132 126 9 0 23 -55
51 -202 11 -58 16 -63 42 -53 12 5 12 20 0 106 -8 55 -12 102 -10 104 2 3 20
7 39 11 23 4 30 3 21 -4 -11 -7 -10 -10 3 -16 11 -4 16 -16 14 -38 -1 -18 1
-40 4 -48 12 -32 28 -124 42 -245 21 -174 27 -217 35 -260 5 -27 12 -63 16
-80 4 -16 7 -61 8 -100 1 -72 10 -92 34 -73 9 8 11 27 6 72 -3 33 -8 65 -12
70 -3 6 -7 26 -8 46 -3 49 -25 203 -30 211 -2 4 -6 40 -9 81 -3 58 -2 65 4 33
5 -22 14 -53 20 -68 6 -16 9 -32 7 -36 -5 -7 9 -80 20 -111 4 -12 6 -12 14 -1
8 13 6 39 -5 114 -3 15 -1 26 4 23 5 -3 11 8 15 24 6 35 123 167 147 169 26 2
42 -26 46 -82 2 -28 8 -56 14 -62 6 -6 2 -16 -13 -27 -19 -14 -20 -18 -6 -18
12 0 21 -13 28 -42 21 -82 31 -87 23 -13 -4 39 -7 105 -8 148 0 66 1 75 12 61
7 -10 13 -21 13 -26 0 -4 8 -8 18 -8 21 0 51 -42 33 -48 -18 -6 -13 -43 8 -49
15 -4 22 -20 30 -67 6 -35 11 -77 11 -94 0 -49 23 -40 96 35 74 77 85 76 92
-12 3 -41 8 -55 20 -55 13 0 12 -3 -3 -14 -16 -11 -17 -16 -6 -29 7 -9 15 -42
18 -74 7 -62 25 -117 44 -129 13 -8 5 141 -11 211 -15 62 -13 95 5 89 16 -7
25 -30 30 -77 8 -84 29 -194 40 -212 7 -11 13 -48 14 -83 2 -64 12 -105 29
-116 5 -3 8 -45 7 -93 -1 -49 3 -91 8 -94 11 -8 -44 -39 -68 -39 -8 0 -15 -5
-15 -10 0 -6 13 -8 29 -5 29 5 29 4 29 -43 1 -53 29 -203 41 -215 5 -5 35 17
69 47 33 31 64 56 70 56 5 0 18 -20 29 -45 16 -39 19 -42 24 -22 3 12 2 31 -2
43 -4 11 -4 27 1 34 6 9 11 7 20 -10 9 -18 14 -20 21 -9 5 8 3 16 -4 21 -12 7
-8 8 36 12 6 1 11 -7 9 -18 -5 -25 28 -206 37 -206 4 0 26 16 49 36 l42 36 0
84 0 84 -35 17 c-29 14 -36 24 -46 68 -8 38 -16 51 -30 52 -10 1 -21 -2 -24
-8 -4 -5 -1 -9 4 -9 6 0 11 -9 11 -20 0 -11 5 -20 10 -20 16 0 12 -47 -6 -64
-8 -9 -31 -16 -50 -16 -19 0 -37 0 -41 -1 -4 0 -9 4 -11 10 -2 6 13 18 33 27
32 13 36 18 31 40 -4 14 -11 60 -16 102 -13 102 -20 132 -30 132 -5 0 -7 -7
-3 -16 3 -8 0 -26 -7 -39 -10 -19 -10 -29 4 -56 20 -40 20 -63 1 -79 -13 -11
-28 -8 -84 14 -70 27 -91 50 -91 99 0 12 -7 44 -15 71 -8 27 -15 71 -15 97 0
26 -4 51 -10 54 -12 7 -14 105 -2 105 4 0 14 -30 22 -67 9 -38 18 -63 21 -58
3 6 -1 40 -10 78 -12 52 -19 67 -33 67 -11 0 -18 7 -18 20 0 11 4 20 8 20 5 0
36 25 71 56 50 46 64 54 76 44 10 -8 13 -24 9 -53 -4 -28 -1 -48 9 -61 13 -17
12 -22 -12 -42 -26 -23 -26 -23 -3 -24 24 0 26 -9 22 -73 -1 -30 3 -42 19 -53
23 -16 28 -40 10 -46 -21 -7 0 -48 24 -48 18 0 19 2 7 10 -12 8 -12 10 -1 10
9 0 11 7 7 23 -12 38 -57 319 -61 377 -4 48 -3 51 6 23 8 -28 14 -33 39 -33
28 0 30 -3 28 -32 -2 -30 16 -158 28 -200 8 -27 20 -22 70 24 37 34 49 40 62
31 16 -9 18 -4 20 50 2 39 -2 73 -12 96 -16 36 -54 233 -63 327 -5 49 -4 51
36 86 36 30 41 40 41 76 0 38 -3 43 -71 93 -71 52 -72 53 -99 37 -28 -16 -29
-15 -38 10 -6 15 -10 35 -10 46 1 18 2 18 14 1 10 -14 18 -15 41 -8 33 12 33
19 10 143 -21 113 -44 237 -51 280 -4 19 -16 76 -27 127 l-20 91 -70 62 c-54
48 -67 65 -59 75 7 9 7 15 1 19 -5 4 -12 2 -16 -4 -4 -7 -17 -3 -35 10 -23 16
-33 18 -55 10 -35 -13 -35 -14 -35 14 0 48 -20 75 -136 180 -108 98 -144 122
-144 96 0 -12 -37 -13 -44 -1 -3 5 -8 29 -11 52 -4 29 -13 50 -28 63 -12 10
-54 48 -93 85 -94 88 -146 135 -161 144 -6 4 -28 0 -47 -10 -20 -9 -38 -14
-41 -11 -3 3 -8 28 -12 57 l-6 51 -233 0 -234 0 2 -45 c1 -25 5 -45 8 -45 3 0
6 -12 7 -27 1 -16 6 -54 12 -87 7 -32 10 -60 8 -62 -5 -5 -150 97 -232 163
-42 35 -61 57 -63 76 l-3 27 -102 -1 c-56 0 -97 -3 -91 -5 7 -3 10 -20 8 -42
-5 -39 4 -113 59 -477 37 -243 51 -300 67 -275 6 8 10 11 10 6 0 -6 14 3 30
19 17 16 30 35 30 42 0 7 5 13 10 13 6 0 10 7 10 15 0 8 5 15 10 15 6 0 10 25
10 56 0 55 -1 56 -25 52 -14 -3 -25 -2 -25 3 0 9 75 103 129 162 l34 37 24
-22 c13 -12 23 -28 23 -37 0 -11 3 -12 11 -4 8 8 8 17 0 30 -5 11 -10 28 -9
39 0 10 -3 33 -7 49 -7 27 -7 29 8 17 9 -8 19 -35 22 -60 20 -162 77 -380 102
-389 7 -3 13 -9 13 -15 0 -5 -4 -6 -10 -3 -6 4 -10 -5 -10 -19 0 -14 5 -26 11
-26 6 0 8 8 5 18 -5 14 -4 14 9 -2 17 -23 20 -46 5 -46 -5 0 -10 -4 -10 -10 0
-5 6 -10 14 -10 12 0 22 -34 27 -95 1 -5 5 -21 10 -34 12 -31 3 -58 -21 -64
-18 -5 -24 -32 -19 -94 0 -5 13 -7 29 -6 16 2 32 -2 35 -7 13 -20 13 -80 1
-88 -7 -4 -15 -15 -19 -24 -8 -24 -28 -23 -72 3 -38 23 -41 42 -9 47 29 6 36
17 28 46 -5 20 -12 26 -34 26 -26 0 -226 115 -307 176 -17 13 -36 24 -42 24
-6 0 -20 10 -31 23 -20 21 -22 21 -31 4 -6 -9 -14 -15 -20 -12 -5 4 -9 2 -9
-3 0 -14 -51 -25 -62 -14 -13 13 17 35 50 34 45 0 50 11 36 80 -8 35 -14 82
-14 105 0 23 -4 44 -9 47 -5 4 -12 28 -16 54 -6 45 -9 49 -33 47 -26 -1 -47
-35 -23 -35 12 0 15 -30 4 -30 -5 0 -17 -7 -27 -15 -18 -14 -18 -16 -4 -28 9
-6 19 -23 21 -37 3 -20 5 -19 6 8 1 28 4 33 22 30 23 -3 23 -7 20 -122 -1 -15
-8 -26 -20 -29 -12 -3 -23 -18 -29 -38 -10 -39 -23 -41 -92 -11 l-45 20 30 11
c46 17 60 28 57 43 -4 16 -33 223 -37 263 -1 17 -6 67 -10 111 l-7 81 37 7
c20 4 44 10 52 13 10 4 14 2 9 -5 -3 -6 -2 -13 4 -17 13 -8 13 5 -2 38 -15 30
-23 34 -32 12 -3 -8 -12 -15 -20 -15 -10 0 -13 6 -10 15 5 11 2 13 -9 9 -9 -3
-18 -13 -20 -22 -3 -12 -5 -11 -6 5 0 12 -5 25 -11 28 -5 3 -9 32 -8 63 1 31
-4 74 -11 95 -17 52 -7 84 34 109 19 11 35 24 35 29 0 5 -38 9 -85 9 -47 0
-85 -3 -85 -8 0 -4 4 -22 9 -40 6 -19 6 -44 0 -64 -6 -21 -5 -34 2 -38 6 -4 4
-11 -6 -20 -19 -16 -19 -30 0 -30 16 0 21 -17 30 -105 3 -33 7 -69 9 -80 2
-11 6 -56 10 -100 8 -82 18 -106 49 -118 22 -8 21 -36 -3 -67 -11 -14 -20 -35
-20 -47 0 -15 -6 -23 -17 -23 -15 0 -160 82 -355 198 -30 18 -38 49 -39 138
-1 62 11 85 35 65 8 -7 21 -9 27 -5 9 5 10 1 7 -14 -4 -12 -3 -24 2 -27 12 -7
33 22 25 35 -4 7 8 28 28 48 42 45 64 85 49 90 -5 1 -8 11 -5 22 4 14 -1 19
-22 22 l-27 3 23 26 c45 50 104 122 107 131 2 4 -118 8 -267 8 l-271 0 0 -32
c0 -32 15 -140 26 -187 5 -23 6 -23 25 -5 14 13 18 25 14 45 -6 28 10 49 25
33 8 -9 16 -86 25 -239 6 -104 12 -137 28 -147 6 -4 9 -10 5 -13 -7 -7 -56 20
-73 40 -5 6 -38 26 -72 44 -35 19 -60 38 -57 43 4 6 26 19 50 30 24 10 44 22
44 26 0 11 -60 62 -73 62 -6 0 -3 6 7 13 15 11 17 23 12 68 -3 30 -6 62 -6 72
-1 9 -6 17 -12 17 -5 0 -7 7 -4 16 10 26 -3 35 -24 16 -23 -19 -26 -34 -7 -30
13 3 17 -3 17 -26 0 -8 -8 -13 -17 -12 -15 1 -18 -8 -18 -52 0 -36 -4 -52 -13
-52 -7 0 -70 35 -140 78 -70 44 -171 104 -224 135 l-97 57 -446 0 -447 0 6
-62z m3191 -56 c-3 -31 -2 -95 4 -142 6 -47 13 -110 17 -140 3 -30 10 -63 15
-72 5 -9 9 -25 9 -36 0 -11 6 -25 13 -31 20 -16 21 -91 2 -91 -23 0 -219 153
-233 183 -20 41 -41 199 -29 221 5 10 45 56 89 102 70 73 83 82 100 73 17 -9
19 -17 13 -67z m-1625 18 c0 -11 -2 -20 -4 -20 -2 0 -6 9 -9 20 -3 11 -1 20 4
20 5 0 9 -9 9 -20z m-740 -129 c7 -13 7 -22 0 -26 -5 -3 -10 1 -10 9 0 9 -7
16 -15 16 -8 0 -15 5 -15 10 0 18 29 11 40 -9z m770 -41 c0 -5 -4 -10 -10 -10
-5 0 -10 5 -10 10 0 6 5 10 10 10 6 0 10 -4 10 -10z m-773 -62 c-3 -7 -5 -2
-5 12 0 14 2 19 5 13 2 -7 2 -19 0 -25z m10 -40 c-3 -8 -6 -5 -6 6 -1 11 2 17
5 13 3 -3 4 -12 1 -19z m1988 -47 c3 -6 -4 -15 -15 -21 -16 -8 -20 -8 -20 3 0
25 23 36 35 18z m743 -55 c3 -40 6 -47 20 -42 9 4 0 -10 -21 -30 -21 -20 -36
-39 -32 -42 3 -3 11 0 17 6 21 21 26 13 32 -60 6 -65 19 -133 45 -234 15 -58
-1 -57 -79 0 -85 63 -96 80 -106 156 -3 30 -13 80 -20 110 -8 30 -14 59 -14
66 0 15 89 104 115 115 32 13 40 5 43 -45z m-1231 -158 c-3 -8 -6 -5 -6 6 -1
11 2 17 5 13 3 -3 4 -12 1 -19z m1577 -244 c9 -71 25 -168 35 -216 21 -103 17
-107 -58 -53 -59 42 -79 92 -95 230 -3 22 -10 56 -15 75 -10 32 -9 37 27 73
46 49 74 61 84 37 3 -9 13 -75 22 -146z m-720 83 c3 -12 6 -37 6 -55 0 -40 16
-72 35 -72 8 0 17 -12 21 -27 20 -91 39 -140 53 -139 9 1 18 -13 24 -39 6 -22
14 -43 19 -46 11 -7 14 -21 30 -136 6 -46 16 -83 21 -83 6 0 5 -5 -1 -12 -11
-15 -13 -68 -2 -68 15 0 17 -75 2 -97 -17 -27 -22 -28 -70 -7 l-37 16 33 15
c24 9 32 18 28 29 -3 9 -6 22 -6 30 0 8 -6 11 -15 8 -8 -4 -27 2 -43 12 -15
10 -43 26 -62 35 -19 9 -75 42 -124 74 -94 62 -108 80 -120 166 -5 35 -3 49 9
59 19 16 19 30 0 30 -15 0 -21 36 -7 42 4 2 21 20 36 40 30 41 29 68 -4 68
-30 0 -25 11 31 76 98 115 129 132 143 81z m96 9 c0 -15 -37 -32 -47 -22 -3 3
-3 12 0 21 8 19 47 20 47 1z m110 -28 c0 -5 -4 -8 -10 -8 -5 0 -10 10 -10 23
0 18 2 19 10 7 5 -8 10 -18 10 -22z m-2240 -55 c0 -68 -5 -66 -14 5 -4 33 -3
52 4 52 6 0 10 -24 10 -57z m10 -79 c0 -8 -5 -12 -10 -9 -6 4 -8 11 -5 16 9
14 15 11 15 -7z m3016 -84 c18 -59 17 -89 -1 -96 -20 -8 -19 -22 2 -20 13 1
21 -15 34 -69 9 -38 21 -83 28 -98 15 -39 14 -107 -1 -107 -7 0 -34 16 -60 35
-51 37 -47 27 -88 240 l-19 100 32 33 c17 18 38 31 46 30 7 -2 20 -23 27 -48z
m-1709 -72 c-3 -7 -5 -2 -5 12 0 14 2 19 5 13 2 -7 2 -19 0 -25z m443 16 c0
-8 -5 -12 -10 -9 -6 4 -8 11 -5 16 9 14 15 11 15 -7z m678 -1 c8 -15 20 -114
22 -180 0 -7 9 -13 20 -13 11 0 19 3 19 8 -6 34 1 41 31 31 25 -9 27 -13 18
-28 -6 -10 -36 -26 -67 -36 -31 -10 -50 -20 -43 -22 7 -3 26 0 43 6 40 14 46
10 52 -36 11 -74 38 -228 43 -242 3 -10 7 -11 18 -2 8 7 20 10 27 9 11 -2 14
13 13 64 l-1 68 59 60 c33 33 64 60 69 60 24 0 39 -31 39 -82 0 -72 8 -97 30
-95 13 1 19 11 22 38 2 21 0 35 -4 33 -15 -9 -8 67 7 82 13 14 16 12 27 -11 9
-19 9 -28 0 -37 -15 -15 -16 -62 -2 -53 6 4 10 -8 11 -27 1 -32 1 -32 10 -8 6
18 7 10 3 -28 -2 -28 0 -61 5 -71 6 -10 11 -34 13 -52 1 -19 4 -38 8 -44 8
-13 7 -27 -3 -42 -4 -7 0 -27 9 -44 14 -28 19 -69 27 -219 2 -28 -2 -36 -18
-38 -11 -1 -29 4 -40 12 -20 14 -19 15 8 25 20 8 27 16 23 29 -11 39 -20 88
-17 96 1 5 -4 41 -13 80 -8 39 -23 113 -32 164 -16 80 -21 92 -39 92 -11 0
-29 -7 -39 -15 -19 -14 -19 -15 7 -15 27 0 28 -1 26 -62 0 -35 4 -75 10 -90 6
-15 8 -35 5 -43 -4 -9 2 -25 12 -36 10 -11 19 -25 20 -32 16 -88 16 -97 3 -97
-14 0 -143 74 -171 98 -12 10 -22 12 -30 5 -27 -21 -61 -22 -99 -2 -42 21 -51
39 -20 39 29 0 37 21 15 37 -29 21 -134 87 -174 109 -19 10 -39 22 -45 27 -53
38 -55 42 -65 122 -6 44 -13 92 -16 107 -4 19 1 33 16 48 19 19 21 29 15 67
-5 33 -10 43 -21 39 -33 -13 -6 31 66 106 58 61 74 68 88 41z m62 -7 c0 -9 7
-12 20 -9 14 4 20 0 20 -10 0 -8 3 -22 6 -31 4 -11 1 -16 -10 -16 -9 0 -16 -8
-16 -17 0 -22 -26 25 -27 47 0 8 -4 23 -8 33 -4 10 -3 17 4 17 6 0 11 -6 11
-14z m-1170 -46 c0 -13 -5 -18 -15 -14 -12 5 -13 10 -4 20 15 19 19 18 19 -6z
m170 -42 c0 -7 -5 -20 -10 -28 -8 -12 -10 -9 -10 13 0 15 5 27 10 27 6 0 10
-6 10 -12z m-173 -30 c-3 -8 -6 -5 -6 6 -1 11 2 17 5 13 3 -3 4 -12 1 -19z
m1223 -8 c0 -5 -4 -10 -10 -10 -5 0 -10 5 -10 10 0 6 5 10 10 10 6 0 10 -4 10
-10z m379 -140 c0 -9 -6 -4 -14 10 -8 14 -14 32 -14 40 0 9 6 4 14 -10 8 -14
14 -32 14 -40z m18 -92 c-3 -8 -6 -5 -6 6 -1 11 2 17 5 13 3 -3 4 -12 1 -19z
m-1047 -40 c0 -25 -3 -29 -10 -18 -13 20 -13 50 0 50 6 0 10 -15 10 -32z
m1067 -95 c-3 -10 -5 -4 -5 12 0 17 2 24 5 18 2 -7 2 -21 0 -30z m125 -3 c8
-24 15 -29 29 -25 15 5 19 1 19 -20 0 -14 7 -36 15 -49 9 -14 19 -67 24 -137
6 -63 19 -152 30 -198 11 -47 18 -87 16 -90 -3 -2 0 -10 5 -16 12 -15 2 -95
-12 -95 -16 0 -48 20 -48 30 0 6 12 10 26 10 20 0 25 4 22 22 -2 13 -11 22
-24 23 -11 1 -41 15 -66 33 -25 17 -52 32 -59 34 -8 2 -20 11 -27 21 -7 9 -19
17 -26 17 -9 0 -14 15 -14 47 -1 26 -6 71 -13 101 -9 44 -8 56 2 63 11 6 10 9
-4 15 -11 4 -17 17 -17 38 0 17 -4 47 -10 66 -6 22 -6 38 0 44 6 6 10 19 10
31 0 13 3 16 8 8 6 -9 18 -3 42 22 42 43 58 44 72 5z m-312 -430 c0 -5 -7 -10
-15 -10 -8 0 -15 5 -15 10 0 6 7 10 15 10 8 0 15 -4 15 -10z"/>
<path d="M8752 5015 c-7 -8 -9 -15 -4 -15 5 0 15 7 22 15 16 19 -1 19 -18 0z"/>
<path d="M8725 4960 c-8 -13 15 -13 35 0 12 8 11 10 -7 10 -12 0 -25 -4 -28
-10z"/>
<path d="M8594 4929 c-3 -6 -1 -16 5 -22 8 -8 11 -5 11 11 0 24 -5 28 -16 11z"/>
<path d="M9020 4630 c0 -5 5 -10 10 -10 6 0 10 5 10 10 0 6 -4 10 -10 10 -5 0
-10 -4 -10 -10z"/>
<path d="M9360 4384 c0 -8 5 -12 10 -9 6 3 10 10 10 16 0 5 -4 9 -10 9 -5 0
-10 -7 -10 -16z"/>
<path d="M2507 5823 c-12 -11 -8 -23 8 -23 8 0 15 7 15 15 0 16 -12 20 -23 8z"/>
<path d="M7720 5815 c0 -8 7 -15 15 -15 9 0 12 6 9 15 -4 8 -10 15 -15 15 -5
0 -9 -7 -9 -15z"/>
<path d="M5112 5690 c0 -19 2 -27 5 -17 2 9 2 25 0 35 -3 9 -5 1 -5 -18z"/>
<path d="M7460 5675 c0 -8 5 -15 10 -15 6 0 10 7 10 15 0 8 -4 15 -10 15 -5 0
-10 -7 -10 -15z"/>
<path d="M7852 5650 c0 -19 2 -27 5 -17 2 9 2 25 0 35 -3 9 -5 1 -5 -18z"/>
<path d="M5131 5614 c0 -11 3 -14 6 -6 3 7 2 16 -1 19 -3 4 -6 -2 -5 -13z"/>
<path d="M5094 5553 c-4 -16 -8 -44 -8 -63 0 -19 -5 -38 -11 -42 -6 -5 -3 -8
7 -8 20 0 26 19 26 88 1 59 -2 64 -14 25z"/>
<path d="M2360 5546 c0 -9 5 -16 10 -16 6 0 10 4 10 9 0 6 -4 13 -10 16 -5 3
-10 -1 -10 -9z"/>
<path d="M4625 5521 c-7 -22 14 -63 30 -58 5 2 10 19 10 38 0 39 -29 54 -40
20z"/>
<path d="M7856 5437 c3 -10 9 -15 12 -12 3 3 0 11 -7 18 -10 9 -11 8 -5 -6z"/>
<path d="M5090 5401 c0 -11 -5 -21 -11 -23 -6 -2 -9 -15 -7 -28 3 -24 4 -24
14 -5 18 32 26 75 14 75 -5 0 -10 -9 -10 -19z"/>
<path d="M6175 5385 c-16 -13 -26 -27 -23 -30 3 -4 21 7 40 24 39 36 26 41
-17 6z"/>
<path d="M3191 5364 c0 -11 3 -14 6 -6 3 7 2 16 -1 19 -3 4 -6 -2 -5 -13z"/>
<path d="M6393 5352 c1 -19 5 -36 9 -38 10 -6 9 13 -2 46 -8 23 -8 22 -7 -8z"/>
<path d="M8237 5359 c-22 -11 -37 -23 -34 -25 6 -7 77 28 77 38 0 10 2 11 -43
-13z"/>
<path d="M6097 5299 c3 -11 12 -19 20 -17 20 4 18 21 -5 29 -16 6 -19 4 -15
-12z"/>
<path d="M8080 5260 c0 -13 5 -18 15 -14 12 5 13 10 4 20 -15 19 -19 18 -19
-6z"/>
<path d="M2210 5120 c-45 -60 -84 -110 -87 -110 -2 0 -1 10 2 23 7 22 7 22 -9
2 -17 -23 -21 -39 -6 -30 23 14 7 -13 -25 -44 -19 -18 -35 -39 -35 -46 0 -35
21 -18 69 53 28 42 81 119 116 170 36 50 63 92 60 92 -2 0 -41 -49 -85 -110z"/>
<path d="M7825 5220 c-3 -5 -1 -10 4 -10 6 0 11 5 11 10 0 6 -2 10 -4 10 -3 0
-8 -4 -11 -10z"/>
<path d="M7850 5220 c0 -5 5 -10 10 -10 6 0 10 5 10 10 0 6 -4 10 -10 10 -5 0
-10 -4 -10 -10z"/>
<path d="M3141 5148 c-1 -15 -5 -30 -11 -33 -12 -8 -13 -65 -1 -65 14 0 30 80
21 104 -8 20 -9 19 -9 -6z"/>
<path d="M6381 5084 c0 -11 3 -14 6 -6 3 7 2 16 -1 19 -3 4 -6 -2 -5 -13z"/>
<path d="M2136 5073 c-6 -14 -5 -15 5 -6 7 7 10 15 7 18 -3 3 -9 -2 -12 -12z"/>
<path d="M4676 4991 c11 -10 136 -52 141 -47 4 3 -132 56 -145 56 -3 0 -2 -4
4 -9z"/>
<path d="M7225 4970 c-21 -23 -16 -25 19 -9 14 7 23 16 20 20 -8 14 -19 11
-39 -11z"/>
<path d="M5910 4964 c-11 -12 -10 -18 4 -32 14 -14 18 -15 25 -3 9 15 3 51 -9
51 -4 0 -13 -7 -20 -16z"/>
<path d="M6641 4964 c0 -11 3 -14 6 -6 3 7 2 16 -1 19 -3 4 -6 -2 -5 -13z"/>
<path d="M1977 4856 c-5 -48 -6 -90 -3 -93 7 -7 18 98 14 142 -2 27 -6 12 -11
-49z"/>
<path d="M3120 4909 c0 -5 5 -7 10 -4 6 3 10 8 10 11 0 2 -4 4 -10 4 -5 0 -10
-5 -10 -11z"/>
<path d="M5043 4875 c0 -22 2 -30 4 -17 2 12 2 30 0 40 -3 9 -5 -1 -4 -23z"/>
<path d="M4670 4872 c0 -18 -7 -40 -15 -48 -17 -17 -20 -44 -6 -44 5 0 12 6
14 13 3 7 6 5 6 -5 1 -10 6 -18 11 -18 13 0 13 100 0 120 -7 11 -10 7 -10 -18z"/>
<path d="M4465 4800 c3 -5 8 -10 11 -10 2 0 4 5 4 10 0 6 -5 10 -11 10 -5 0
-7 -4 -4 -10z"/>
<path d="M5040 4791 c0 -19 17 -38 25 -29 7 7 -7 48 -16 48 -5 0 -9 -9 -9 -19z"/>
<path d="M4654 4758 c3 -10 2 -18 -2 -18 -4 0 -5 -29 -4 -65 2 -36 8 -65 13
-65 5 0 9 -9 9 -19 0 -13 -5 -18 -18 -14 -10 2 -72 -26 -144 -66 -69 -39 -133
-71 -141 -71 -10 0 -13 -7 -10 -20 3 -11 7 -20 8 -20 2 0 29 17 61 39 33 21
84 51 114 66 30 15 67 33 83 41 l27 15 0 -50 c0 -27 6 -78 14 -113 15 -67 25
-351 26 -737 0 -123 3 -221 7 -217 4 4 6 232 4 507 -1 302 1 499 7 499 5 0 30
-6 55 -14 l47 -14 37 62 c20 33 45 72 55 85 13 17 15 28 8 35 -5 5 -10 22 -10
37 0 23 -6 29 -52 44 -88 28 -182 67 -191 79 -6 7 -7 4 -3 -6z"/>
<path d="M1963 4705 c0 -22 2 -30 4 -17 2 12 2 30 0 40 -3 9 -5 -1 -4 -23z"/>
<path d="M8120 4710 c0 -5 9 -10 20 -10 11 0 20 5 20 10 0 6 -9 10 -20 10 -11
0 -20 -4 -20 -10z"/>
<path d="M1413 4703 c-18 -7 -16 -23 2 -23 8 0 15 7 15 15 0 8 -1 15 -2 14 -2
0 -9 -3 -15 -6z"/>
<path d="M1956 4531 c-3 -5 -16 -7 -29 -4 -21 5 -20 4 7 -25 23 -25 32 -29 43
-20 8 6 13 20 11 31 -3 23 -23 34 -32 18z"/>
<path d="M6062 4415 c0 -16 2 -22 5 -12 2 9 2 23 0 30 -3 6 -5 -1 -5 -18z"/>
<path d="M8206 4291 c-4 -5 -2 -12 3 -15 5 -4 12 -2 15 3 4 5 2 12 -3 15 -5 4
-12 2 -15 -3z"/>
<path d="M5056 4243 c-4 -9 -2 -21 4 -27 7 -7 10 -2 10 17 0 31 -5 34 -14 10z"/>
<path d="M8602 4239 c-13 -5 -20 -13 -17 -19 4 -6 -9 -17 -27 -25 l-33 -14 32
-1 c33 0 35 -3 48 -67 5 -23 11 -31 26 -30 11 1 19 9 19 20 0 10 -4 16 -9 13
-4 -3 -7 12 -5 32 1 21 -1 52 -4 69 -6 27 -10 29 -30 22z"/>
<path d="M5864 4151 c-33 -44 -64 -79 -71 -76 -8 2 -10 -2 -6 -12 4 -11 3 -14
-6 -9 -7 5 -17 -5 -26 -28 -8 -19 -21 -39 -28 -43 -6 -4 -21 -25 -32 -45 -11
-21 -22 -38 -26 -38 -4 0 -12 -13 -19 -30 -7 -16 -16 -30 -21 -30 -5 0 -9 -5
-9 -10 0 -6 16 2 35 17 19 15 35 33 35 38 0 9 71 115 107 160 73 92 134 177
130 181 -2 3 -31 -31 -63 -75z"/>
<path d="M7632 4210 c1 -13 9 -25 16 -28 17 -5 15 23 -4 39 -14 11 -15 10 -12
-11z"/>
<path d="M8220 4180 c0 -5 5 -10 10 -10 6 0 10 5 10 10 0 6 -4 10 -10 10 -5 0
-10 -4 -10 -10z"/>
<path d="M8061 4164 c-18 -13 -22 -24 -20 -63 1 -25 -4 -63 -11 -84 -16 -42
-12 -42 -120 0 -139 55 -243 103 -256 120 -10 13 -13 14 -14 4 0 -10 -10 -12
-40 -7 -32 5 -41 3 -49 -13 -18 -32 -66 -46 -112 -32 -23 7 -43 10 -46 7 -12
-12 -15 -141 -4 -193 7 -32 13 -80 14 -108 1 -27 5 -52 8 -55 6 -5 26 -155 64
-489 14 -117 19 -137 39 -156 13 -12 27 -36 31 -53 11 -53 25 -36 25 32 0 36
5 68 10 71 14 9 12 48 -2 64 -11 11 -9 13 10 8 20 -5 22 -1 23 36 2 70 10 84
69 115 84 43 274 145 279 149 2 1 2 6 -1 9 -3 3 -47 -18 -97 -45 -50 -28 -94
-51 -97 -51 -3 0 -33 -16 -65 -35 -33 -19 -62 -35 -64 -35 -9 0 -22 70 -23
130 l-2 65 126 129 c133 137 142 142 170 87 7 -13 14 -18 18 -13 3 5 -4 22
-15 37 -20 25 -20 26 -3 23 16 -3 19 3 18 39 -3 67 12 41 19 -33 7 -75 12 -85
30 -61 6 9 24 21 39 26 24 9 26 13 18 41 -10 34 -11 33 62 55 47 13 55 27 37
71 -13 33 -13 31 -23 136 -4 43 -11 80 -15 83 -4 2 -18 -3 -30 -11z m-501
-705 c-8 -15 -15 -18 -22 -11 -8 8 -5 19 8 39 15 22 19 25 22 11 2 -9 -2 -27
-8 -39z"/>
<path d="M8303 4138 c-37 -18 -26 -26 17 -15 25 7 35 14 27 19 -15 9 -16 9
-44 -4z"/>
<path d="M5815 4129 c-4 -6 -5 -12 -2 -15 2 -3 7 2 10 11 7 17 1 20 -8 4z"/>
<path d="M8246 4073 c10 -44 26 -54 22 -14 -2 19 -9 36 -16 39 -9 3 -11 -4 -6
-25z"/>
<path d="M9142 4051 c4 -13 18 -16 19 -4 0 4 -5 9 -11 12 -7 2 -11 -2 -8 -8z"/>
<path d="M4242 4031 c-66 -19 -85 -31 -64 -38 6 -3 12 -11 12 -20 0 -10 6 -12
23 -8 48 15 92 41 89 54 -2 8 3 18 10 22 19 13 1 10 -70 -10z"/>
<path d="M5110 4020 c0 -11 4 -20 9 -20 5 0 7 9 4 20 -3 11 -7 20 -9 20 -2 0
-4 -9 -4 -20z"/>
<path d="M4108 3998 c-17 -5 -28 -17 -28 -28 0 -22 28 -47 39 -34 7 8 24 75
18 73 -1 0 -14 -5 -29 -11z"/>
<path d="M5121 3974 c0 -11 3 -14 6 -6 3 7 2 16 -1 19 -3 4 -6 -2 -5 -13z"/>
<path d="M8240 3950 c0 -5 5 -10 10 -10 6 0 10 5 10 10 0 6 -4 10 -10 10 -5 0
-10 -4 -10 -10z"/>
<path d="M8640 3945 c0 -9 6 -12 15 -9 8 4 12 10 9 15 -8 14 -24 10 -24 -6z"/>
<path d="M5136 3910 c8 -56 10 -59 16 -20 3 17 -1 38 -9 48 -11 15 -12 11 -7
-28z"/>
<path d="M7125 3900 c2 -30 4 -68 4 -83 1 -16 5 -26 10 -23 10 7 4 108 -9 140
-6 14 -7 3 -5 -34z"/>
<path d="M7161 3934 c0 -11 3 -14 6 -6 3 7 2 16 -1 19 -3 4 -6 -2 -5 -13z"/>
<path d="M8260 3896 c0 -9 5 -16 10 -16 6 0 10 4 10 9 0 6 -4 13 -10 16 -5 3
-10 -1 -10 -9z"/>
<path d="M8660 3881 c0 -6 5 -13 10 -16 6 -3 10 1 10 9 0 9 -4 16 -10 16 -5 0
-10 -4 -10 -9z"/>
<path d="M9204 3815 c3 -39 13 -110 21 -159 11 -60 12 -92 5 -100 -5 -7 -7
-23 -5 -37 15 -75 15 -85 -2 -104 -12 -13 -45 -27 -90 -37 -70 -15 -73 -15
-73 2 0 10 -2 25 -6 33 -4 11 10 17 55 26 58 11 61 13 61 42 0 17 -8 36 -20
46 -11 10 -20 23 -20 29 0 16 -40 5 -47 -12 -8 -22 -46 -16 -133 21 -90 38
-108 41 -174 23 -30 -8 -48 -19 -55 -35 -6 -13 -16 -21 -22 -18 -12 8 -2 -58
13 -87 4 -10 5 -30 2 -44 -5 -18 -3 -25 4 -20 7 4 14 -7 18 -30 4 -21 2 -39
-3 -43 -14 -8 -14 -62 -1 -78 7 -9 7 -17 -1 -27 -8 -10 -9 -16 -1 -21 5 -3 10
-19 10 -36 0 -16 5 -29 10 -29 12 0 13 21 1 53 -6 15 -6 29 1 38 8 12 9 11 5
-1 -3 -9 0 -23 7 -32 10 -13 26 -2 116 83 58 54 110 98 117 99 6 0 19 -10 29
-22 l16 -23 -5 23 c-3 12 -1 22 4 22 12 0 26 -30 34 -73 5 -27 12 -37 21 -33
9 3 14 -1 15 -12 1 -33 10 -66 18 -72 4 -3 12 -18 18 -35 7 -22 17 -31 39 -35
28 -5 29 -8 47 -105 10 -55 19 -117 20 -137 1 -22 8 -40 16 -43 11 -4 13 5 8
52 -5 52 -5 55 6 27 7 -17 18 -29 25 -27 17 6 15 32 -3 39 -25 10 -17 53 16
96 17 21 29 41 26 44 -3 3 -12 -3 -19 -15 -19 -31 -48 -27 -49 7 -1 16 -3 20
-6 10 -6 -24 -23 -23 -23 1 0 18 101 124 136 144 9 5 20 0 31 -13 25 -29 30
-25 31 25 1 39 -2 47 -26 61 -15 8 -18 12 -7 9 11 -4 22 -7 25 -7 3 -1 31 2
63 6 36 5 57 13 57 21 0 15 -72 55 -98 55 -34 0 -186 69 -193 87 -4 10 -8 34
-8 53 -1 26 -4 31 -11 20 -5 -8 -10 -10 -10 -5 0 6 5 16 11 22 9 9 7 41 -5
125 -10 62 -20 120 -23 128 -3 8 -7 32 -8 53 -2 22 -6 42 -10 45 -4 4 -4 -25
-1 -63z m-225 -351 c19 -8 32 -17 29 -19 -3 -3 -29 6 -59 20 -54 26 -33 25 30
-1z m188 -136 c-3 -7 -5 -2 -5 12 0 14 2 19 5 13 2 -7 2 -19 0 -25z m-417 -64
c0 -8 -5 -12 -10 -9 -6 4 -8 11 -5 16 9 14 15 11 15 -7z m430 -18 c0 -13 3
-31 6 -40 3 -9 2 -16 -3 -16 -5 0 -10 6 -10 13 0 6 -4 24 -8 40 -5 17 -3 27 4
27 6 0 11 -11 11 -24z m27 -128 c-3 -8 -6 -5 -6 6 -1 11 2 17 5 13 3 -3 4 -12
1 -19z m70 -153 c0 -8 -4 -12 -9 -9 -4 3 -8 9 -8 15 0 5 4 9 8 9 5 0 9 -7 9
-15z"/>
<path d="M3190 3861 c0 -6 5 -13 10 -16 6 -3 10 1 10 9 0 9 -4 16 -10 16 -5 0
-10 -4 -10 -9z"/>
<path d="M8240 3844 c7 -18 5 -23 -13 -28 -12 -3 -29 1 -39 11 -17 15 -18 15
-18 -4 0 -16 -5 -19 -28 -15 -21 3 -29 0 -29 -12 0 -11 6 -14 19 -10 18 5 19
4 6 -21 -12 -23 -12 -35 -2 -77 7 -27 23 -128 35 -224 13 -96 27 -174 32 -174
4 0 69 60 143 133 75 72 140 134 145 136 6 2 22 -7 36 -20 25 -23 25 -23 14
-2 -14 27 -14 36 -1 28 6 -3 10 0 10 7 1 9 5 7 14 -4 7 -10 18 -18 24 -18 18
0 24 20 12 35 -19 23 4 42 65 55 54 11 54 12 49 43 -11 66 -14 74 -30 74 -10
0 -14 -7 -11 -19 3 -11 -1 -22 -9 -25 -25 -9 -331 118 -340 142 -3 6 -24 12
-49 12 -41 0 -43 -2 -35 -23z m319 -231 c0 -16 -3 -22 -6 -13 -3 8 -10 21 -16
28 -7 8 -5 12 7 12 11 0 16 -8 15 -27z"/>
<path d="M7134 3764 c3 -9 6 -21 7 -27 0 -7 4 -3 8 8 9 22 5 35 -11 35 -5 0
-7 -7 -4 -16z"/>
<path d="M6930 3727 c-19 -18 -42 -42 -49 -53 -8 -10 8 3 37 31 47 45 57 56
50 55 -2 0 -19 -15 -38 -33z"/>
<path d="M5131 3704 c0 -11 3 -14 6 -6 3 7 2 16 -1 19 -3 4 -6 -2 -5 -13z"/>
<path d="M6815 3618 l-40 -42 37 30 c30 24 55 54 45 54 -2 0 -21 -19 -42 -42z"/>
<path d="M9090 3648 c1 -17 22 -42 38 -45 18 -4 15 28 -5 43 -23 17 -33 17
-33 2z"/>
<path d="M6750 3560 c0 -5 4 -10 9 -10 6 0 13 5 16 10 3 6 -1 10 -9 10 -9 0
-16 -4 -16 -10z"/>
<path d="M6435 3540 c-3 -5 -1 -10 4 -10 6 0 11 5 11 10 0 6 -2 10 -4 10 -3 0
-8 -4 -11 -10z"/>
<path d="M5148 3505 c4 -33 22 -40 22 -9 0 12 7 14 33 9 17 -4 36 -11 42 -16
11 -11 21 -159 11 -159 -4 0 -20 7 -36 15 -26 14 -30 13 -39 -2 -7 -14 -13
-15 -34 -6 -19 9 -29 9 -43 -1 -18 -12 -154 -66 -203 -81 -23 -7 -23 -7 16
-49 22 -22 79 -89 127 -148 103 -127 97 -124 361 -164 55 -8 109 -17 120 -19
58 -11 197 -34 245 -40 30 -4 74 -10 97 -15 23 -4 54 -5 67 -3 14 3 39 0 56
-5 20 -7 30 -8 30 -1 0 6 12 9 28 7 26 -3 27 -1 30 45 2 26 8 47 13 47 6 0 7
5 4 10 -10 17 5 50 23 50 15 0 15 2 2 10 -13 8 -12 10 3 10 14 0 17 5 12 23
-4 12 -14 28 -23 34 -8 7 -12 16 -9 20 4 3 7 2 7 -3 0 -4 7 1 15 13 8 12 25
23 37 25 12 2 23 9 26 16 2 7 -2 10 -11 6 -8 -3 -34 6 -59 20 -43 24 -139 38
-154 23 -4 -4 -12 -3 -18 2 -16 12 -96 30 -111 25 -7 -3 -30 4 -51 15 -22 11
-78 27 -126 37 -49 10 -84 22 -81 27 4 6 -4 7 -20 3 -14 -3 -36 -2 -49 3 -13
6 -17 10 -10 10 29 2 82 33 75 45 -11 17 -3 59 14 78 18 20 24 17 -87 47 -76
21 -336 81 -349 81 -4 0 -5 -16 -3 -35z m207 -189 c24 -11 27 -15 13 -21 -9
-3 -32 2 -55 14 -34 18 -35 20 -13 20 14 0 39 -6 55 -13z"/>
<path d="M6637 3524 c-10 -11 -9 -66 2 -59 5 3 12 -3 14 -12 3 -12 5 -9 5 7 0
36 -12 73 -21 64z"/>
<path d="M6430 3510 c0 -5 5 -10 11 -10 5 0 7 5 4 10 -3 6 -8 10 -11 10 -2 0
-4 -4 -4 -10z"/>
<path d="M6524 3413 c2 -16 5 -34 5 -40 1 -7 11 -13 24 -13 18 0 19 2 7 10
-10 6 -11 10 -2 10 18 0 15 24 -6 43 -26 24 -33 21 -28 -10z"/>
<path d="M8148 3415 c-7 -32 5 -69 14 -44 2 8 2 28 -2 44 l-6 30 -6 -30z"/>
<path d="M1539 3318 c-7 -62 -13 -145 -14 -185 0 -85 16 -108 81 -119 40 -6
41 -5 48 26 3 18 6 48 6 66 0 30 3 34 25 34 14 0 25 -6 26 -12 3 -77 8 -93 33
-115 31 -26 81 -31 90 -7 3 8 9 83 12 167 6 134 5 154 -10 166 -9 7 -16 21
-16 31 0 10 -10 20 -22 24 -51 13 -55 9 -62 -55 -7 -58 -8 -60 -34 -57 -22 2
-28 9 -30 33 -2 17 -13 40 -24 52 -11 12 -17 26 -14 32 8 13 -25 31 -57 31
-24 0 -25 -4 -38 -112z m66 22 c3 -5 1 -10 -4 -10 -6 0 -11 5 -11 10 0 6 2 10
4 10 3 0 8 -4 11 -10z"/>
<path d="M5143 3393 c-21 -8 -15 -18 11 -18 18 0 22 3 14 13 -6 6 -11 12 -12
11 0 0 -7 -3 -13 -6z"/>
<path d="M9470 3377 c0 -8 9 -17 20 -20 11 -3 20 -1 20 4 0 4 -9 13 -20 19
-16 8 -20 8 -20 -3z"/>
<path d="M1945 3350 c-13 -14 -20 -46 -26 -112 -5 -51 -11 -107 -14 -125 -7
-39 22 -99 60 -126 27 -19 113 -37 183 -37 54 0 57 8 66 166 7 103 5 122 -8
133 -9 8 -16 23 -16 36 0 35 -31 54 -114 70 -100 19 -109 19 -131 -5z m145
-195 c0 -56 -6 -63 -44 -49 -13 5 -15 15 -10 43 9 55 12 61 34 61 18 0 20 -6
20 -55z m80 -9 c0 -14 -4 -28 -10 -31 -5 -3 -10 -15 -10 -26 0 -25 -12 -24
-28 1 -11 17 -9 24 8 42 11 12 20 25 20 30 0 4 5 8 10 8 6 0 10 -11 10 -24z
m-121 -60 c9 -11 8 -18 -4 -30 -20 -19 -50 -7 -58 24 -4 17 0 20 23 20 15 0
33 -6 39 -14z"/>
<path d="M2333 3302 c-12 -2 -27 -10 -34 -19 -17 -20 -29 -121 -17 -151 5 -16
4 -30 -6 -43 -21 -31 -3 -108 33 -140 47 -43 212 -66 229 -31 18 34 22 126 7
146 -19 25 -19 36 0 36 10 0 15 10 15 31 0 38 -28 127 -44 137 -17 11 -159 37
-183 34z m20 -309 c-7 -2 -19 -2 -25 0 -7 3 -2 5 12 5 14 0 19 -2 13 -5z"/>
<path d="M8164 3269 c-3 -6 -1 -16 5 -22 8 -8 11 -5 11 11 0 24 -5 28 -16 11z"/>
<path d="M2630 3250 c-11 -7 -19 -71 -31 -250 -6 -80 18 -120 69 -120 25 0 29
5 38 42 l9 42 56 -3 c68 -3 93 17 102 80 6 43 -23 141 -50 170 -8 10 -44 22
-81 29 -37 6 -74 13 -83 14 -9 2 -22 0 -29 -4z"/>
<path d="M8365 3237 c-10 -5 -38 -11 -64 -12 -25 -2 -45 -7 -45 -12 1 -4 17
-7 35 -5 l34 3 -34 -28 c-19 -15 -42 -33 -50 -40 -9 -6 -13 -14 -9 -18 3 -4
35 14 69 39 35 25 70 47 79 47 38 3 44 5 47 15 5 15 -41 23 -62 11z"/>
<path d="M6516 3210 c6 -6 28 -13 50 -15 l39 -5 -30 14 c-36 18 -74 21 -59 6z"/>
<path d="M8178 3195 c-6 -30 -3 -43 8 -33 3 4 4 19 2 35 l-3 28 -7 -30z"/>
<path d="M2941 3188 c-10 -27 -26 -213 -23 -273 2 -45 29 -75 67 -75 27 0 30
14 41 191 4 73 2 109 -5 113 -6 4 -11 18 -11 32 0 14 -6 24 -14 24 -8 0 -21 3
-30 6 -11 4 -19 -2 -25 -18z"/>
<path d="M9475 3200 c-3 -5 -1 -10 4 -10 6 0 11 5 11 10 0 6 -2 10 -4 10 -3 0
-8 -4 -11 -10z"/>
<path d="M9505 3190 c-3 -5 -1 -10 4 -10 6 0 11 5 11 10 0 6 -2 10 -4 10 -3 0
-8 -4 -11 -10z"/>
<path d="M3086 3156 c-9 -37 12 -83 44 -96 l29 -12 -2 -105 c-2 -93 0 -106 17
-119 17 -12 63 -20 67 -11 1 1 4 52 8 112 l6 110 31 -3 c27 -2 32 1 36 22 3
14 1 31 -3 38 -5 7 -9 23 -9 35 0 24 -1 25 -111 42 -95 16 -106 15 -113 -13z"/>
<path d="M4701 3154 c0 -11 3 -14 6 -6 3 7 2 16 -1 19 -3 4 -6 -2 -5 -13z"/>
<path d="M3392 3073 c-11 -27 -25 -68 -32 -93 -6 -25 -19 -68 -28 -97 -14 -47
-14 -53 1 -77 21 -31 73 -36 93 -8 12 16 14 16 36 -5 24 -23 78 -32 78 -13 0
35 -24 109 -37 114 -11 5 -13 10 -4 20 11 14 4 74 -20 164 -10 36 -15 42 -39
42 -23 0 -31 -7 -48 -47z m-12 -113 c0 -5 -5 -10 -11 -10 -5 0 -7 5 -4 10 3 6
8 10 11 10 2 0 4 -4 4 -10z"/>
<path d="M3615 3090 c-3 -6 -6 -76 -6 -157 0 -181 -1 -179 124 -189 l87 -7 -1
29 c-2 67 -11 78 -69 90 l-55 10 -6 102 c-3 56 -9 106 -15 111 -16 15 -52 22
-59 11z"/>
<path d="M6498 3086 c-15 -6 -37 -21 -50 -33 -14 -13 -60 -32 -108 -44 -47
-13 -86 -24 -88 -25 -2 -1 5 -11 15 -21 10 -10 44 -53 76 -95 78 -104 110
-136 138 -142 24 -4 393 -62 459 -72 37 -5 86 -6 135 -2 24 3 29 7 27 25 -2
12 2 24 8 28 6 3 7 11 4 17 -4 6 1 8 15 3 18 -5 21 -2 21 24 0 16 5 33 10 36
6 4 9 23 8 43 -3 35 -2 36 45 50 49 14 60 27 30 35 -17 4 -17 5 -1 6 12 1 17
8 15 21 -5 31 -15 34 -35 10 l-19 -23 -199 42 c-109 24 -253 54 -319 68 -81
17 -125 32 -137 44 -9 11 -18 19 -20 18 -1 0 -15 -6 -30 -13z"/>
<path d="M9166 3083 c-12 -12 -6 -33 9 -33 8 0 15 6 15 14 0 17 -14 28 -24 19z"/>
<path d="M9187 3039 c-9 -6 -17 -14 -17 -19 0 -17 27 -11 34 6 8 22 5 25 -17
13z"/>
<path d="M3997 3033 c-12 -11 -8 -61 6 -66 10 -4 10 -6 0 -6 -10 -1 -13 -32
-13 -119 0 -117 0 -119 25 -132 30 -16 42 -7 47 34 3 32 28 49 28 19 0 -31 29
-63 57 -63 24 0 25 2 19 39 -4 25 0 52 9 76 21 49 11 147 -19 181 -17 21 -31
25 -81 27 -33 1 -63 5 -66 10 -3 4 -8 4 -12 0z m148 -43 c3 -5 1 -10 -4 -10
-6 0 -11 5 -11 10 0 6 2 10 4 10 3 0 8 -4 11 -10z m-35 -90 c13 -8 12 -10 -2
-10 -10 0 -18 -4 -18 -8 0 -5 -7 -9 -15 -9 -17 0 -17 0 -9 21 7 18 22 20 44 6z
m-70 -10 c12 -7 12 -12 3 -21 -9 -9 -16 -9 -27 1 -26 21 -5 39 24 20z"/>
<path d="M8803 3014 c-6 -13 -10 -24 -8 -24 6 0 95 41 95 44 0 7 -46 0 -52 -9
-5 -6 -11 -6 -16 2 -5 8 -11 4 -19 -13z"/>
<path d="M9177 2994 c-12 -12 -8 -24 8 -24 7 0 19 -8 25 -17 9 -15 10 -13 8
12 -3 29 -25 44 -41 29z"/>
<path d="M4232 2839 c3 -179 -1 -171 122 -184 l69 -7 -7 138 c-4 76 -12 144
-18 151 -5 7 -7 16 -4 21 7 12 -24 20 -104 29 l-61 6 3 -154z"/>
<path d="M7511 2958 c0 -18 3 -26 6 -18 3 8 12 23 21 33 14 15 13 17 -6 17
-18 0 -22 -6 -21 -32z"/>
<path d="M8770 2970 c0 -5 5 -10 10 -10 6 0 10 5 10 10 0 6 -4 10 -10 10 -5 0
-10 -4 -10 -10z"/>
<path d="M4485 2940 c-16 -18 -19 -37 -18 -131 1 -105 2 -112 26 -137 34 -34
132 -45 141 -16 8 27 1 248 -9 263 -10 17 -68 41 -98 41 -13 0 -32 -9 -42 -20z
m31 -227 c-4 -4 -14 1 -22 11 -22 31 -17 43 8 19 12 -13 18 -26 14 -30z"/>
<path d="M4690 2797 c0 -143 10 -177 52 -177 20 0 20 3 13 148 -4 81 -9 150
-12 155 -2 4 -15 7 -29 7 l-24 0 0 -133z"/>
<path d="M9207 2923 c-4 -3 -7 -11 -7 -17 0 -6 5 -5 12 2 6 6 9 14 7 17 -3 3
-9 2 -12 -2z"/>
<path d="M4817 2879 c-10 -16 -17 -57 -19 -122 -4 -91 -3 -100 18 -122 19 -21
33 -25 77 -25 35 0 56 5 59 13 3 6 6 62 7 124 2 110 2 112 -23 128 -14 9 -43
19 -65 22 -33 5 -41 2 -54 -18z m83 -135 c0 -38 -3 -45 -17 -42 -32 6 -30 88
2 88 11 0 15 -11 15 -46z"/>
<path d="M5007 2883 c-4 -3 -7 -66 -7 -139 0 -117 2 -134 18 -142 27 -15 42
-3 42 34 0 45 11 42 35 -9 13 -27 28 -43 42 -45 21 -3 21 -2 16 135 -5 133
-11 158 -38 150 -5 -2 -12 -19 -15 -38 l-5 -34 -17 41 c-18 46 -51 67 -71 47z"/>
<path d="M7505 2864 c-26 -20 -169 -64 -205 -64 -35 0 -45 -13 -24 -30 8 -7
40 -49 71 -93 58 -83 100 -117 144 -117 14 0 92 -11 173 -25 158 -27 207 -25
247 7 13 11 17 16 9 12 -12 -6 -13 -5 -4 7 6 8 10 24 8 37 -2 12 1 22 6 22 6
0 10 7 10 15 0 8 4 15 8 15 4 0 8 12 7 28 0 25 4 28 58 36 56 9 57 10 57 42 0
41 -11 49 -34 22 -16 -19 -25 -20 -90 -15 -39 4 -105 17 -146 31 -41 13 -113
32 -160 41 -47 9 -92 23 -100 30 -12 11 -18 11 -35 -1z"/>
<path d="M0 1430 l0 -1430 295 0 295 0 0 76 c0 41 -5 85 -11 96 -8 15 -8 19 0
14 26 -17 43 -69 39 -127 l-3 -59 36 0 c43 0 44 3 48 95 1 38 5 73 7 77 3 4
28 8 56 8 l51 0 -5 -90 -6 -90 837 2 c789 3 836 4 835 21 -1 13 5 17 30 16 22
-1 25 -3 9 -6 -12 -2 -24 -11 -27 -19 -4 -11 4 -14 35 -14 37 0 39 1 29 20 -9
17 -7 24 12 40 13 11 39 20 58 20 19 0 52 4 73 9 22 5 37 5 37 0 0 -5 10 -7
23 -4 13 4 42 -3 67 -14 25 -11 39 -20 31 -20 -7 -1 -24 -12 -37 -26 l-24 -26
1263 3 c1195 3 1263 4 1288 21 15 10 29 27 32 37 4 17 0 20 -29 20 -35 0 -44
-16 -22 -38 9 -9 7 -12 -10 -12 -12 0 -22 5 -22 11 0 5 -4 7 -10 4 -15 -9 -12
11 3 27 8 7 12 19 9 27 -3 10 0 12 13 7 10 -3 23 -2 29 2 15 12 56 22 56 14 0
-4 16 -8 36 -10 21 -1 33 2 29 8 -4 6 10 8 35 6 33 -3 40 -1 36 10 -4 10 3 14
26 14 34 0 29 14 -7 23 -19 5 -19 5 3 12 12 4 22 14 22 21 0 19 16 18 24 -2 7
-19 45 -15 59 7 18 29 -15 52 -62 44 -31 -5 -49 -1 -90 21 -49 25 -57 26 -159
22 -67 -4 -121 -12 -144 -22 -43 -18 -113 -23 -88 -5 11 8 12 12 2 16 -13 5
18 34 51 46 9 3 17 11 17 17 0 5 10 10 23 10 45 0 99 21 93 36 -3 8 -1 14 5
14 6 0 7 4 4 10 -8 13 11 13 35 0 16 -9 18 -8 13 6 -5 14 -3 15 15 5 24 -13
45 -15 38 -3 -3 5 21 14 53 20 53 11 59 15 65 42 3 17 1 42 -5 56 -5 15 -7 29
-4 32 13 13 -21 32 -59 33 -40 1 -39 1 19 14 33 7 63 11 67 9 4 -3 7 -39 6
-80 0 -41 2 -77 5 -81 7 -6 95 3 452 48 273 35 451 57 520 64 235 25 317 35
326 41 6 3 34 8 63 9 84 5 200 17 208 21 13 8 -4 34 -23 34 -13 0 -19 7 -19
21 0 11 -4 18 -9 15 -12 -8 -58 30 -49 40 5 4 47 8 95 8 82 1 89 -1 98 -21 5
-13 17 -23 25 -23 9 0 25 -7 36 -15 19 -15 19 -15 -1 -8 -18 6 -19 5 -5 -11
12 -16 24 -17 85 -12 85 8 273 35 298 42 30 9 15 38 -21 44 l-34 5 32 18 c19
12 29 24 26 33 -7 18 25 35 51 28 12 -3 24 -1 27 5 5 7 -5 11 -26 11 -78 0
-143 35 -119 64 7 8 9 25 6 39 -5 18 -2 28 10 35 15 8 14 10 -10 16 -19 5 -26
12 -23 24 3 10 -1 76 -7 147 -7 72 -9 134 -5 139 13 13 27 -1 34 -34 5 -27 8
-30 25 -20 11 5 22 10 25 10 11 0 6 -58 -6 -62 -6 -2 -8 -10 -4 -16 11 -18 26
-14 26 6 0 10 5 23 10 28 6 6 12 32 13 58 2 36 8 51 23 59 23 14 26 49 5 58
-11 4 -9 7 7 11 12 4 22 2 22 -3 0 -5 6 -9 14 -9 8 0 16 -6 19 -12 7 -21 17
-4 10 20 -3 12 -11 22 -18 22 -7 0 -16 8 -19 17 -6 14 -9 15 -15 4 -9 -13 -31
-7 -31 8 0 4 9 17 20 29 11 11 16 24 11 27 -6 3 -14 -3 -20 -12 -5 -10 -13
-15 -17 -11 -4 4 -1 14 6 23 7 8 10 22 6 30 -4 10 1 15 17 16 17 1 18 2 4 6
-20 5 -50 -15 -41 -28 3 -5 0 -18 -7 -30 l-11 -22 -14 24 c-7 13 -13 18 -14
12 0 -20 -20 -15 -20 5 -1 15 -2 15 -16 -3 -13 -17 -16 -18 -24 -5 -8 13 -13
13 -38 -2 -35 -21 -45 -15 -64 45 l-15 47 39 36 c22 20 46 33 54 30 8 -3 14
-1 14 4 0 6 11 5 25 -2 28 -12 26 -20 -7 -25 -12 -2 -23 -5 -25 -7 -8 -8 21
-56 33 -56 7 0 19 -10 25 -22 11 -20 13 -20 24 -5 7 10 26 17 45 17 25 0 31 3
26 16 -3 9 -6 18 -6 20 0 2 -8 4 -17 4 -9 0 -13 3 -10 7 4 3 0 15 -10 25 -22
24 -14 30 28 18 38 -11 89 -13 89 -4 0 4 -8 13 -17 20 -15 11 -16 15 -4 23 11
7 11 9 0 14 -8 3 -1 6 15 6 23 1 26 4 17 15 -9 10 -9 15 -1 18 7 2 -1 27 -21
63 -17 33 -38 72 -46 88 -8 15 -18 27 -22 27 -5 0 -26 16 -47 36 -56 51 -122
91 -188 114 -58 20 -113 26 -506 55 -222 17 -480 38 -720 59 -91 8 -235 20
-320 26 -85 6 -238 20 -340 30 -102 11 -264 26 -360 35 -96 8 -215 19 -265 25
-49 5 -191 19 -315 30 -530 49 -1559 154 -1900 195 -69 8 -177 20 -240 25 -63
5 -146 14 -185 19 -38 6 -117 15 -175 21 -58 6 -139 15 -180 20 -67 8 -222 24
-585 61 -127 12 -388 44 -490 59 -38 6 -79 11 -90 11 -11 1 -144 14 -295 31
-304 32 -453 47 -487 48 l-23 0 0 -1430z m567 1184 c24 -4 41 -9 39 -13 -6 -9
-234 14 -244 24 -7 7 119 0 205 -11z m382 -35 c119 -11 218 -22 220 -25 7 -7
-35 -5 -229 11 -226 19 -261 23 -268 30 -9 9 57 5 277 -16z m1944 -176 c-7 -2
-19 -2 -25 0 -7 3 -2 5 12 5 14 0 19 -2 13 -5z m100 -10 c-7 -2 -19 -2 -25 0
-7 3 -2 5 12 5 14 0 19 -2 13 -5z m-2655 -80 c175 -13 232 -20 232 -30 0 -16
20 -17 -252 8 -215 19 -322 36 -243 39 17 0 135 -7 263 -17z m362 -33 l25 -7
-27 -8 c-31 -8 -58 -1 -58 15 0 11 23 12 60 0z m4008 -247 c-10 -2 -28 -2 -40
0 -13 2 -5 4 17 4 22 1 32 -1 23 -4z m1676 -23 c-21 -8 -52 -15 -133 -27 -35
-5 -43 -3 -39 8 3 10 25 15 69 17 35 1 71 4 79 6 30 7 45 5 24 -4z m53 4 c-3
-3 -12 -4 -19 -1 -8 3 -5 6 6 6 11 1 17 -2 13 -5z m-3163 -25 c-3 -5 -10 -7
-15 -3 -5 3 -7 10 -3 15 3 5 10 7 15 3 5 -3 7 -10 3 -15z m-1937 5 c-3 -3 -12
-4 -19 -1 -8 3 -5 6 6 6 11 1 17 -2 13 -5z m4210 -10 c-3 -3 -12 -4 -19 -1 -8
3 -5 6 6 6 11 1 17 -2 13 -5z m-2235 -46 c-9 -9 -12 -7 -12 12 0 19 3 21 12
12 9 -9 9 -15 0 -24z m2553 2 c3 -6 -4 -10 -18 -10 -14 0 -30 -7 -37 -15 -10
-13 -9 -15 8 -15 12 0 24 5 27 10 3 6 16 9 28 9 17 -1 18 -2 5 -6 -10 -2 -18
-11 -18 -18 0 -37 -74 -51 -93 -18 -5 7 -12 11 -18 8 -5 -4 -9 -2 -9 3 0 16
-50 24 -127 23 -77 -2 -94 9 -40 27 42 13 284 15 292 2z m65 -31 c0 -6 7 -9
15 -6 8 4 16 3 19 -1 3 -5 -11 -9 -30 -10 -25 -2 -34 1 -34 13 0 8 7 15 15 15
8 0 15 -5 15 -11z m-5143 -41 c-3 -8 -6 -5 -6 6 -1 11 2 17 5 13 3 -3 4 -12 1
-19z m4014 -1 c-10 -9 -11 -8 -5 6 3 10 9 15 12 12 3 -3 0 -11 -7 -18z m-3371
-46 c0 -6 -4 -13 -10 -16 -5 -3 -10 1 -10 9 0 9 5 16 10 16 6 0 10 -4 10 -9z
m110 -13 c0 -12 -1 -19 -3 -17 -1 2 -9 12 -16 22 -12 14 -11 17 3 17 10 0 16
-8 16 -22z m6150 -3 c0 -12 -19 -12 -23 0 -4 9 -1 12 9 8 7 -3 14 -7 14 -8z
m-4772 -25 c-7 -11 -15 -15 -17 -9 -2 6 3 15 10 20 20 12 21 11 7 -11z m-1408
-5 c0 -8 -2 -15 -4 -15 -2 0 -6 7 -10 15 -3 8 -1 15 4 15 6 0 10 -7 10 -15z
m1470 -32 c0 -10 -4 -14 -8 -8 -4 6 -11 13 -16 18 -5 4 -2 7 7 7 10 0 17 -8
17 -17z m-1450 -26 c0 -26 -4 -33 -21 -34 -14 -1 -19 3 -15 13 4 10 -3 14 -29
14 -28 0 -33 -3 -28 -17 5 -13 2 -15 -11 -10 -10 4 -20 7 -22 7 -2 0 -4 12 -4
26 0 21 3 25 18 19 37 -17 78 -17 91 -1 19 22 21 20 21 -17z m3400 -54 l0 -73
-34 0 c-30 0 -34 3 -38 31 -6 41 5 98 15 81 5 -6 6 -16 3 -21 -9 -13 26 -23
38 -11 7 7 6 10 -2 10 -16 0 -15 27 1 33 12 5 -26 11 -50 8 -7 -1 -13 3 -13 8
0 5 18 9 40 8 l40 -1 0 -73z m-1985 36 c17 -1 18 -2 2 -6 -11 -3 -16 -11 -13
-19 3 -9 -1 -14 -14 -14 -24 0 -31 11 -23 39 4 16 9 19 16 12 6 -6 20 -12 32
-12z m58 -26 c-3 -7 -11 -13 -19 -13 -17 0 -18 32 -2 48 10 10 14 9 19 -5 3
-10 4 -24 2 -30z m-1548 -21 c-3 -3 -11 0 -18 7 -9 10 -8 11 6 5 10 -3 15 -9
12 -12z m1492 -19 c2 -5 -11 -10 -29 -11 -31 -1 -32 0 -13 14 20 15 37 14 42
-3z m-1480 1 c-3 -3 -12 -4 -19 -1 -8 3 -5 6 6 6 11 1 17 -2 13 -5z m1533 -4
c0 -13 -11 -13 -30 0 -12 8 -11 10 8 10 12 0 22 -4 22 -10z m3883 -190 c-8 -9
-21 24 -15 39 5 12 8 10 12 -9 4 -14 5 -27 3 -30z m687 -11 c0 -4 -8 -10 -17
-13 -19 -8 -33 9 -33 43 l0 24 25 -23 c14 -13 25 -27 25 -31z m-4115 -29 c-3
-5 -13 -10 -21 -10 -8 0 -12 5 -9 10 3 6 13 10 21 10 8 0 12 -4 9 -10z m3490
-21 c0 -9 -12 -15 -35 -16 -19 0 -25 1 -12 4 12 2 22 11 22 20 0 8 6 13 13 11
6 -3 12 -11 12 -19z m614 -11 c12 -15 11 -18 -3 -18 -10 0 -16 8 -16 22 0 12
1 19 3 17 1 -2 9 -12 16 -21z m69 -17 c3 -8 -1 -12 -9 -9 -7 2 -15 10 -17 17
-3 8 1 12 9 9 7 -2 15 -10 17 -17z m12 -41 c0 -5 -2 -10 -4 -10 -3 0 -8 5 -11
10 -3 6 -1 10 4 10 6 0 11 -4 11 -10z m-786 -61 c3 -17 6 -42 6 -55 0 -23 3
-24 73 -24 39 0 89 3 109 6 37 6 37 7 40 58 l4 51 8 -54 9 -54 103 6 c66 5
104 3 104 -3 0 -6 -4 -10 -10 -10 -5 0 -10 -6 -10 -13 0 -8 -34 -45 -75 -83
-41 -38 -77 -76 -80 -84 -3 -8 29 20 72 63 43 42 84 77 91 77 8 0 12 -18 12
-54 0 -44 -5 -60 -24 -80 -13 -15 -27 -26 -31 -26 -12 0 -34 -33 -35 -51 0
-12 -13 -19 -45 -23 -42 -7 -64 -26 -30 -26 31 0 14 -18 -22 -23 -21 -4 -69
-11 -107 -16 -39 -6 -131 -17 -205 -25 -75 -9 -215 -25 -311 -37 -96 -11 -183
-21 -192 -20 -10 0 -18 -4 -18 -10 0 -8 14 -13 32 -10 4 0 4 -7 1 -16 -4 -11
-8 -13 -11 -5 -2 8 -30 13 -75 13 -58 2 -64 3 -32 8 32 5 40 10 38 26 -5 54
-17 262 -16 275 2 24 -10 26 -119 18 -211 -14 -203 -14 -206 8 -3 19 4 22 65
27 37 4 93 7 123 7 30 0 72 3 93 6 l37 7 0 73 c0 59 3 74 15 74 12 0 15 -13
15 -55 l0 -55 33 0 c62 0 502 22 526 26 21 5 23 9 17 44 -10 64 16 100 28 39z
m-1322 -109 l3 -75 178 4 c171 4 177 3 177 -16 0 -18 -9 -21 -97 -26 -54 -4
-133 -7 -175 -7 l-78 0 1 -97 c0 -107 12 -228 24 -255 6 -15 2 -18 -24 -18
-17 0 -31 5 -31 11 0 17 -258 1 -291 -17 -4 -2 -58 -6 -120 -9 -63 -2 -190
-13 -284 -24 -210 -25 -192 -26 -199 5 -12 46 -8 548 3 552 6 2 11 10 11 18 0
9 5 12 10 9 6 -3 10 -35 10 -70 0 -35 3 -66 8 -68 8 -5 561 18 727 31 l100 7
6 56 c12 109 36 102 41 -11z m-1962 -5 c0 -8 -7 -15 -15 -15 -16 0 -20 12 -8
23 11 12 23 8 23 -8z m3812 -126 c14 -55 13 -99 -2 -99 -4 0 -11 21 -14 48
-11 81 -17 102 -27 96 -5 -3 -9 14 -9 38 l0 43 19 -36 c11 -20 26 -61 33 -90z
m-5162 91 c0 -11 -4 -20 -10 -20 -5 0 -10 9 -10 20 0 11 5 20 10 20 6 0 10 -9
10 -20z m-1760 -59 c0 -15 -17 -22 -62 -26 -40 -5 -40 -4 -23 15 19 21 85 29
85 11z m1736 -134 c13 5 14 -22 8 -208 -3 -118 -8 -223 -9 -234 -2 -11 -4 -35
-4 -53 -1 -43 -24 -51 -160 -57 -58 -2 -166 -9 -239 -16 -73 -6 -136 -8 -139
-5 -4 3 2 6 13 6 56 1 456 39 462 44 5 6 12 109 33 496 l4 65 -33 5 c-18 3
-33 8 -32 13 0 4 0 11 0 16 0 6 15 11 33 13 27 3 33 8 37 33 3 17 6 -4 8 -47
2 -63 5 -76 18 -71z m1362 134 c11 -6 13 -64 10 -290 -2 -198 0 -280 8 -277 6
2 42 7 80 10 52 4 61 3 34 -4 -63 -16 -184 -24 -176 -11 4 6 1 14 -7 17 -12 4
-291 -17 -392 -31 -26 -3 -138 -14 -335 -30 -571 -50 -580 -50 -580 -37 0 6 4
13 9 16 9 6 167 22 541 56 118 10 285 26 370 34 85 8 196 18 245 21 105 7 137
14 147 29 4 6 8 61 8 122 0 110 15 300 27 338 5 18 1 19 -83 13 -105 -8 -708
-34 -979 -42 -104 -3 -202 -8 -217 -11 -16 -3 -28 -1 -28 4 0 11 114 19 360
27 96 4 240 10 320 15 80 5 248 13 373 16 125 4 230 11 233 16 6 10 15 10 32
-1z m-2742 -16 c-11 -8 -29 -15 -39 -15 -16 0 -17 3 -7 15 7 8 24 15 39 15 25
-1 25 -1 7 -15z m1123 -18 c-27 -21 -11 -32 41 -29 28 2 58 1 68 -3 16 -6 16
-8 -2 -21 -15 -10 -49 -14 -135 -13 -64 1 -106 4 -93 6 24 5 31 23 7 23 -9 0
-12 6 -9 15 4 9 20 15 43 16 20 0 45 4 56 9 29 13 42 11 24 -3z m-1396 -22
c-7 -21 -13 -19 -13 6 0 11 4 18 10 14 5 -3 7 -12 3 -20z m1183 -46 c-43 -7
-81 5 -71 22 8 12 55 12 55 -1 0 -17 30 -11 37 7 6 15 7 14 13 -3 6 -16 1 -20
-34 -25z m5621 -6 c-3 -10 -5 -2 -5 17 0 19 2 27 5 18 2 -10 2 -26 0 -35z
m-5853 14 c14 -13 12 -16 -17 -20 -18 -3 -135 -9 -260 -13 -191 -5 -227 -4
-225 7 5 24 16 26 146 28 70 1 128 3 129 4 1 1 49 4 107 5 83 3 109 1 120 -11z
m-1069 -17 c13 -6 15 -9 5 -9 -8 0 -22 4 -30 9 -18 12 -2 12 25 0z m7206 -60
c5 0 9 -4 9 -10 0 -5 -13 -10 -30 -10 -29 0 -38 9 -23 24 4 3 13 4 21 1 7 -3
18 -5 23 -5z m-6591 -43 c0 -11 -47 -15 -227 -20 -147 -5 -231 -3 -237 3 -7 7
13 10 59 11 39 1 129 5 200 8 211 12 205 12 205 -2z m-554 -114 c-9 -136 -23
-252 -34 -288 -10 -29 -10 -29 -12 -5 -1 23 -2 23 -10 5 l-9 -20 0 20 c-1 41
28 331 34 348 4 9 11 17 17 17 5 0 6 5 3 10 -3 6 -1 10 5 10 9 0 10 -26 6 -97z
m374 30 c0 -16 -7 -123 -17 -240 -16 -198 -18 -212 -37 -217 -35 -9 -96 -7
-96 4 0 71 45 467 54 472 6 4 30 8 54 8 39 0 42 -2 42 -27z m6028 -21 c2 -23
-1 -50 -7 -59 -9 -15 -10 -11 -11 19 0 48 -8 68 -29 69 -12 0 -12 2 4 9 32 14
40 6 43 -38z m-228 8 c-14 -4 -41 -8 -60 -8 -28 -1 -31 1 -15 8 11 5 38 8 60
8 34 0 36 -1 15 -8z m-709 -15 c-1 -15 -24 -12 -29 3 -3 9 2 13 12 10 10 -1
17 -7 17 -13z m584 5 c-28 -12 -45 -12 -45 0 0 6 15 10 33 9 27 0 29 -2 12 -9z
m-147 -7 c-10 -2 -26 -2 -35 0 -10 3 -2 5 17 5 19 0 27 -2 18 -5z m55 0 c-7
-2 -19 -2 -25 0 -7 3 -2 5 12 5 14 0 19 -2 13 -5z m-163 -68 c0 -37 -4 -65
-10 -65 -6 0 -10 28 -10 65 0 37 4 65 10 65 6 0 10 -28 10 -65z m-675 26 c3
-5 1 -12 -5 -16 -5 -3 -10 1 -10 9 0 18 6 21 15 7z m-951 -95 c45 0 46 -9 4
-21 -27 -8 -36 -7 -51 8 -10 10 -15 23 -11 28 4 8 9 7 15 -2 4 -7 24 -13 43
-13z m566 14 c0 -5 -17 -9 -37 -9 -38 1 -38 1 -8 9 43 11 45 11 45 0z m-423
-6 c-3 -3 -12 -4 -19 -1 -8 3 -5 6 6 6 11 1 17 -2 13 -5z m-217 -37 c0 -7 -11
-12 -27 -11 -45 2 -50 6 -18 14 44 11 45 11 45 -3z m80 -69 c0 -18 -5 -40 -10
-48 -7 -11 -10 -2 -10 33 0 26 5 47 10 47 6 0 10 -15 10 -32z m-1115 -68 c-17
-7 -17 -9 -2 -9 18 -1 25 -21 7 -21 -5 0 -10 -11 -10 -25 0 -44 -18 -27 -22
20 -3 42 -2 45 22 44 23 0 23 -1 5 -9z m-767 -17 c-10 -2 -28 -2 -40 0 -13 2
-5 4 17 4 22 1 32 -1 23 -4z m-105 -10 c-7 -2 -19 -2 -25 0 -7 3 -2 5 12 5 14
0 19 -2 13 -5z m-1063 -59 c-36 -8 -100 -9 -100 -2 0 5 26 7 58 7 31 -1 50 -3
42 -5z m-147 -11 c-13 -2 -33 -2 -45 0 -13 2 -3 4 22 4 25 0 35 -2 23 -4z
m3002 -13 c-3 -5 -10 -10 -16 -10 -5 0 -9 5 -9 10 0 6 7 10 16 10 8 0 12 -4 9
-10z m-60 -9 c-16 -14 -77 -31 -88 -24 -5 3 -7 1 -4 -4 11 -17 -46 -23 -202
-22 -160 1 -152 6 53 34 60 8 110 16 112 18 2 2 34 4 71 5 39 1 63 -2 58 -7z
m-902 -112 c-6 -6 -33 -14 -60 -17 -26 -3 -67 -16 -91 -28 -58 -31 -215 -58
-244 -43 -16 9 -18 13 -7 20 10 6 8 10 -11 18 -23 9 -22 10 15 10 22 1 57 6
79 12 30 8 199 29 316 38 10 1 11 -2 3 -10z m1231 -36 c44 -25 -61 -55 -164
-47 -45 3 -109 -1 -159 -9 -56 -9 -99 -11 -129 -5 -32 5 -48 5 -53 -3 -4 -6
-11 -9 -15 -6 -5 2 -30 2 -55 -2 -25 -4 -54 -4 -65 -1 -14 5 -7 9 26 14 25 4
54 11 65 16 18 8 111 30 194 46 54 10 201 -5 201 -21 0 -9 8 -7 24 8 19 18 35
22 69 21 25 -1 52 -6 61 -11z m-1694 -13 c0 -5 -12 -10 -27 -9 -25 0 -26 1 -8
9 27 12 35 12 35 0z m-245 -20 c-3 -5 -10 -10 -16 -10 -5 0 -9 5 -9 10 0 6 7
10 16 10 8 0 12 -4 9 -10z m2458 -31 c-6 -6 -9 -18 -6 -25 6 -16 -5 -18 -25
-5 -11 6 -10 11 3 25 9 9 22 16 28 16 8 0 8 -3 0 -11z m-4603 -23 c0 -3 -4 -8
-10 -11 -5 -3 -10 -1 -10 4 0 6 5 11 10 11 6 0 10 -2 10 -4z m3474 -15 c16
-18 16 -18 -9 -14 -25 5 -31 14 -18 26 9 9 8 10 27 -12z m-2049 -11 c3 -5 1
-10 -4 -10 -6 0 -11 5 -11 10 0 6 2 10 4 10 3 0 8 -4 11 -10z m3155 6 c0 -11
-19 -15 -25 -6 -3 5 1 10 9 10 9 0 16 -2 16 -4z m47 -12 c-3 -3 -12 -4 -19 -1
-8 3 -5 6 6 6 11 1 17 -2 13 -5z"/>
<path d="M7138 1162 c-40 -3 -42 -8 -32 -60 l6 -30 67 45 c36 25 68 47 71 49
4 5 -21 4 -112 -4z"/>
<path d="M6911 1152 l-43 -3 7 -132 c3 -73 9 -142 12 -154 5 -23 14 -23 171
-4 55 6 71 24 26 29 -22 3 -25 7 -20 28 l7 25 -21 -21 c-28 -28 -74 -24 -78 8
-4 23 24 55 86 101 29 22 32 29 32 78 l0 54 -67 -3 c-38 -2 -88 -4 -112 -6z
m49 -237 c0 -8 -4 -15 -9 -15 -13 0 -22 16 -14 24 11 11 23 6 23 -9z"/>
<path d="M6715 1140 c-27 -4 -142 -11 -254 -15 l-204 -8 7 -155 c4 -84 10
-160 13 -168 3 -9 16 -12 36 -9 46 6 220 24 385 39 79 8 145 16 148 18 2 3 -1
73 -8 156 l-12 152 -30 -1 c-17 -1 -53 -5 -81 -9z"/>
<path d="M5360 1069 c-63 -3 -218 -12 -345 -18 -126 -6 -252 -14 -280 -16 -27
-2 -56 -4 -63 -5 -10 0 -12 -43 -10 -197 l3 -198 55 3 c30 2 125 10 210 18 85
8 229 21 320 29 91 8 185 17 209 20 l43 7 -3 179 c-3 107 -8 180 -14 182 -5 1
-62 0 -125 -4z"/>
<path d="M5256 2832 c-3 -5 -13 -56 -21 -113 -8 -57 -18 -110 -20 -118 -3 -7
0 -20 6 -27 13 -16 49 -19 49 -4 0 15 36 12 50 -5 7 -8 19 -15 26 -15 22 0 17
62 -14 180 -23 90 -30 105 -49 108 -11 2 -24 -1 -27 -6z"/>
<path d="M5402 2689 c3 -72 10 -135 15 -140 5 -5 37 -12 72 -15 l62 -7 -3 44
c-3 42 -4 43 -48 54 l-45 10 -3 85 c-3 83 -10 100 -41 100 -11 0 -13 -24 -9
-131z"/>
<path d="M5678 2772 c-16 -3 -18 -17 -18 -121 0 -137 7 -151 79 -151 53 0 61
19 61 135 0 64 -4 88 -17 104 -18 22 -74 40 -105 33z m74 -143 c3 -35 1 -39
-17 -37 -20 3 -32 44 -21 74 10 26 34 3 38 -37z"/>
<path d="M5835 2739 c-10 -16 5 -231 17 -246 6 -7 32 -13 59 -13 58 0 61 7 53
105 -3 39 -5 87 -4 108 1 41 -1 42 -72 52 -30 4 -49 2 -53 -6z m45 -29 c0 -5
-2 -10 -4 -10 -3 0 -8 5 -11 10 -3 6 -1 10 4 10 6 0 11 -4 11 -10z"/>
<path d="M6068 2704 c-15 -15 -8 -53 13 -67 20 -15 27 -40 32 -132 2 -28 7
-41 19 -43 22 -4 33 50 24 113 -6 36 -4 45 7 45 17 0 32 59 18 73 -13 13 -104
21 -113 11z"/>
<path d="M8235 2688 c-22 -5 -78 -17 -123 -27 l-84 -17 36 -47 c20 -27 36 -59
36 -73 0 -44 23 -208 30 -217 4 -4 52 40 108 98 56 58 112 109 125 114 62 24
206 24 192 1 -3 -5 -12 -7 -20 -4 -35 14 -38 -61 -9 -231 27 -162 33 -198 56
-362 12 -90 26 -163 31 -163 5 0 6 9 2 19 -3 11 1 25 9 34 10 10 12 17 4 25
-8 8 -6 15 6 27 9 9 16 11 16 5 0 -6 5 -8 10 -5 6 4 10 12 9 18 -4 32 2 49 15
44 21 -8 49 65 36 95 -5 13 -12 58 -15 100 -6 74 -8 77 -33 80 -15 2 -27 9
-27 15 0 17 162 163 180 163 9 0 23 -9 32 -20 22 -25 37 -26 21 -1 -25 40 64
80 160 72 28 -2 33 0 30 16 -3 15 7 19 60 27 49 8 62 13 60 25 -3 12 -14 16
-48 14 -24 -1 -49 2 -55 7 -21 17 -228 58 -249 49 -12 -5 -48 -13 -81 -20
-138 -26 -133 -24 -105 -36 14 -6 41 -16 60 -22 33 -10 32 -10 -15 -5 -76 9
-120 30 -123 59 -2 26 5 30 81 40 43 6 46 8 36 26 -6 12 -17 18 -25 15 -9 -3
-57 4 -107 15 -51 12 -126 27 -167 35 -41 7 -84 15 -95 17 -11 3 -38 0 -60 -5z
m655 -253 c0 -8 -2 -15 -4 -15 -2 0 -6 7 -10 15 -3 8 -1 15 4 15 6 0 10 -7 10
-15z"/>
<path d="M6217 2663 c-3 -10 -7 -54 -9 -98 -2 -44 -7 -83 -12 -86 -13 -10 1
-39 19 -39 8 0 15 5 15 10 0 15 26 12 40 -5 37 -45 46 26 17 140 -19 75 -27
91 -44 93 -14 2 -23 -3 -26 -15z"/>
<path d="M6360 2655 c0 -8 -6 -12 -14 -9 -19 7 -22 -13 -16 -107 6 -87 16
-105 67 -115 29 -6 34 -3 43 20 13 36 13 123 0 131 -8 5 -8 11 -1 19 13 15 6
57 -11 68 -22 14 -68 9 -68 -7z"/>
<path d="M6475 2641 c-3 -6 -3 -54 1 -106 7 -105 17 -121 73 -127 31 -3 35 0
43 27 5 17 5 70 2 118 -6 82 -8 88 -28 85 -19 -3 -21 -9 -19 -75 1 -40 -2 -73
-7 -73 -12 0 -19 31 -22 100 -2 42 -7 56 -20 58 -9 2 -19 -2 -23 -7z"/>
<path d="M6637 2614 c-4 -4 -7 -56 -7 -116 0 -86 3 -108 14 -108 8 0 16 5 18
12 3 7 12 6 30 -6 26 -17 26 -17 32 11 8 37 -45 207 -65 211 -8 1 -18 0 -22
-4z"/>
<path d="M6715 2600 c-6 -20 10 -60 25 -60 4 0 12 -30 15 -67 12 -115 43 -119
44 -6 1 28 6 64 13 80 23 58 13 71 -54 72 -28 1 -38 -4 -43 -19z m85 -2 c0 -4
-7 -8 -15 -8 -8 0 -15 4 -15 8 0 5 7 9 15 9 8 0 15 -4 15 -9z"/>
<path d="M6852 2598 c-10 -10 -9 -66 3 -158 2 -14 4 -33 4 -42 1 -26 28 -22
35 5 9 34 -5 186 -19 197 -7 6 -15 6 -23 -2z"/>
<path d="M6914 2585 c-10 -25 3 -196 15 -208 8 -8 15 -6 24 7 12 16 14 16 32
-4 l19 -21 11 28 c8 19 9 53 4 107 -8 82 -20 109 -40 89 -9 -9 -18 -8 -35 4
-22 14 -24 14 -30 -2z"/>
<path d="M7052 2560 c-19 -18 -20 -27 -15 -92 6 -87 23 -118 61 -118 23 0 30
6 40 34 12 31 9 75 -7 101 -3 5 -4 22 -3 36 3 27 -20 59 -42 59 -7 0 -22 -9
-34 -20z"/>
<path d="M7170 2450 c0 -100 0 -102 22 -97 12 4 28 2 34 -4 9 -7 15 -5 22 8 7
13 3 43 -12 103 -18 72 -25 85 -44 88 -22 3 -22 1 -22 -98z m35 -60 c3 -5 1
-10 -4 -10 -6 0 -11 5 -11 10 0 6 2 10 4 10 3 0 8 -4 11 -10z"/>
<path d="M9265 2465 c-5 -2 -43 -9 -83 -15 -82 -13 -86 -31 -9 -45 33 -7 37
-9 18 -13 -14 -2 -51 1 -84 8 -40 8 -63 8 -70 1 -7 -7 -3 -54 12 -148 56 -354
67 -403 90 -396 11 3 10 0 -4 -12 l-20 -17 20 4 c14 2 21 12 23 36 2 17 7 32
11 32 16 0 34 59 23 73 -5 6 -13 47 -17 89 l-7 76 -35 -5 c-33 -6 -35 -5 -24
15 13 24 133 133 161 146 22 10 47 -6 60 -39 6 -14 9 -6 9 32 l1 51 63 9 c45
6 62 12 62 23 0 11 14 16 50 18 54 4 77 16 68 38 -3 10 -21 14 -57 14 -28 0
-76 7 -106 15 -50 13 -130 19 -155 10z"/>
<path d="M9588 2373 c-81 -16 -96 -26 -53 -37 41 -10 29 -25 -12 -15 -23 5
-42 4 -47 -1 -10 -10 10 -190 22 -202 4 -4 42 22 85 58 66 56 80 63 97 54 18
-10 20 -8 20 20 0 24 -6 33 -32 45 l-33 15 40 -6 c22 -3 43 -11 47 -18 9 -16
68 -8 68 9 0 17 23 25 68 25 42 0 64 11 54 26 -6 9 -134 32 -217 40 -16 1 -65
-5 -107 -13z m29 -59 c-3 -3 -12 -4 -19 -1 -8 3 -5 6 6 6 11 1 17 -2 13 -5z"/>
<path d="M9950 2321 c-8 -5 -38 -12 -67 -16 l-52 -7 -7 -44 c-7 -47 2 -141 15
-162 6 -10 23 0 67 38 37 33 65 49 76 47 16 -5 18 3 18 68 0 57 -3 74 -16 79
-19 7 -15 7 -34 -3z"/>
<path d="M9240 2169 c0 -5 5 -7 10 -4 6 3 10 8 10 11 0 2 -4 4 -10 4 -5 0 -10
-5 -10 -11z"/>
<path d="M9583 1983 c-34 -20 -61 -39 -59 -41 5 -4 94 41 121 62 37 28 1 16
-62 -21z"/>
<path d="M7830 1930 c0 -5 5 -10 10 -10 6 0 10 5 10 10 0 6 -4 10 -10 10 -5 0
-10 -4 -10 -10z"/>
<path d="M7800 1670 c0 -5 5 -10 11 -10 5 0 7 5 4 10 -3 6 -8 10 -11 10 -2 0
-4 -4 -4 -10z"/>
<path d="M7788 1633 c6 -2 18 -2 25 0 6 3 1 5 -13 5 -14 0 -19 -2 -12 -5z"/>
<path d="M8017 1532 c-23 -4 -42 -15 -50 -28 -7 -12 -20 -33 -30 -47 -23 -33
-58 -129 -53 -144 3 -7 28 -13 56 -15 l52 -3 56 -107 c32 -59 67 -119 79 -132
16 -19 25 -47 32 -104 6 -44 11 -86 13 -93 2 -11 -12 -14 -57 -15 -33 -1 -64
-3 -70 -4 -19 -4 -231 1 -272 7 -38 5 -43 3 -43 -15 0 -34 24 -43 107 -42 105
2 103 2 97 -15 -4 -11 -2 -13 9 -9 18 6 17 25 -3 50 -14 16 -13 17 19 11 18
-4 42 -7 53 -7 10 0 16 -4 13 -10 -3 -5 -17 -10 -31 -10 -13 0 -24 -5 -24 -11
0 -6 7 -8 16 -5 9 4 22 2 28 -3 13 -10 78 -2 71 9 -13 21 9 40 46 40 32 0 39
-4 39 -19 0 -20 26 -31 70 -30 l25 0 -22 16 c-13 8 -23 22 -23 29 0 8 10 14
23 15 21 1 20 1 -4 10 -23 9 -27 17 -33 71 -9 86 -8 118 4 118 6 0 15 -12 21
-27 6 -16 15 -35 19 -44 5 -9 6 -27 3 -40 -6 -21 -5 -23 10 -10 10 8 17 9 17
3 0 -6 10 -14 23 -18 12 -4 25 -12 30 -18 4 -6 5 34 1 89 l-7 100 36 17 c41
19 55 54 37 87 -7 15 -8 27 0 40 8 17 4 26 -25 54 -24 23 -35 43 -35 63 0 86
-51 159 -126 181 -52 16 -150 23 -197 15z m98 -223 c40 -15 86 -22 137 -23 43
-1 78 -4 78 -8 0 -13 -24 -22 -53 -20 -15 1 -36 -2 -47 -8 -14 -7 -20 -7 -20
0 0 5 -15 10 -34 10 -53 0 -126 36 -126 62 0 10 -3 11 65 -13z m171 -77 c-5
-9 -56 -23 -56 -16 0 6 55 32 59 29 1 -2 0 -8 -3 -13z m62 -8 c17 -12 20 -19
12 -33 -5 -10 -6 -22 -2 -26 4 -5 2 -5 -5 -1 -6 3 -15 20 -18 37 -5 23 -9 28
-16 18 -7 -11 -9 -10 -9 4 0 21 9 22 38 1z"/>
<path d="M9948 1435 c-3 -3 -43 -10 -89 -16 -46 -5 -85 -12 -87 -14 -2 -2 9
-26 25 -54 28 -51 28 -51 78 -51 28 0 67 3 88 6 l37 7 0 63 c0 60 -1 64 -23
64 -13 0 -26 -2 -29 -5z"/>
<path d="M9655 1409 c-27 -4 -96 -8 -152 -8 -92 -1 -121 -9 -94 -25 5 -3 23
-31 40 -62 23 -40 36 -54 49 -50 9 2 49 6 87 8 64 3 70 1 72 -17 8 -96 27
-233 34 -245 5 -10 8 -11 9 -2 0 6 7 12 16 12 9 0 14 6 11 13 -2 6 0 20 5 30
5 10 6 26 2 35 -4 9 -13 52 -19 95 -9 66 -9 80 4 86 11 7 13 22 8 66 -3 32 -9
61 -14 64 -4 4 -30 4 -58 0z"/>
<path d="M9120 1387 c-41 -4 -94 -10 -117 -13 l-43 -5 39 -58 c21 -31 45 -61
52 -67 15 -11 215 -3 276 10 l32 7 -5 62 c-3 34 -6 62 -7 63 -8 7 -165 8 -227
1z"/>
<path d="M8568 1363 c-76 -4 -77 -4 -99 -39 l-21 -35 37 -55 38 -55 66 6 c37
4 71 13 77 21 15 19 21 18 27 -7 4 -16 10 -20 24 -14 10 4 58 15 106 23 l89
15 -7 66 c-4 36 -8 68 -10 71 -4 6 -211 8 -327 3z"/>
<path d="M7658 1091 c-23 -23 -23 -31 2 -31 15 0 20 7 20 25 0 29 0 29 -22 6z"/>
<path d="M9745 1000 c3 -5 8 -10 11 -10 2 0 4 5 4 10 0 6 -5 10 -11 10 -5 0
-7 -4 -4 -10z"/>
<path d="M9101 946 c-6 -8 -9 -21 -5 -30 7 -19 0 -20 -27 -5 -16 8 -18 13 -8
25 14 17 5 18 -23 3 -14 -8 -23 -8 -31 0 -16 16 -27 14 -27 -5 0 -12 -3 -14
-13 -6 -7 6 -22 11 -32 10 -11 0 -37 3 -57 7 -21 4 -38 3 -38 -2 0 -5 -21 -15
-46 -22 -25 -8 -51 -19 -57 -26 -9 -10 -14 -9 -23 3 -9 13 -15 14 -26 4 -16
-13 -136 -32 -155 -25 -7 3 -13 1 -13 -5 0 -20 233 -32 245 -12 9 14 31 12 48
-4 11 -11 46 -14 153 -14 76 0 201 -3 278 -7 115 -6 138 -5 134 6 -3 8 -28 19
-56 25 -33 8 -60 21 -77 40 -26 28 -27 28 -56 11 -27 -15 -32 -15 -45 -2 -9 8
-13 19 -10 24 9 15 -22 21 -33 7z m-31 -62 c0 -2 -9 -4 -21 -4 -11 0 -18 4
-14 10 5 8 35 3 35 -6z m-75 -4 c-3 -5 -12 -10 -18 -10 -7 0 -6 4 3 10 19 12
23 12 15 0z m-145 -14 c0 -3 -4 -8 -10 -11 -5 -3 -10 -1 -10 4 0 6 5 11 10 11
6 0 10 -2 10 -4z"/>
<path d="M9606 945 c-3 -9 0 -15 9 -15 8 0 15 7 15 15 0 8 -4 15 -9 15 -5 0
-11 -7 -15 -15z"/>
<path d="M9933 954 c-25 -11 -12 -24 23 -24 24 0 34 4 32 13 -5 13 -35 19 -55
11z"/>
<path d="M9551 914 c0 -11 3 -14 6 -6 3 7 2 16 -1 19 -3 4 -6 -2 -5 -13z"/>
<path d="M8265 897 c-4 -10 -5 -21 -1 -24 10 -10 18 4 13 24 -4 17 -4 17 -12
0z"/>
<path d="M9305 900 c-3 -5 -2 -10 4 -10 5 0 16 -3 25 -6 11 -4 16 -1 16 10 0
18 -35 22 -45 6z"/>
<path d="M9588 903 c6 -2 18 -2 25 0 6 3 1 5 -13 5 -14 0 -19 -2 -12 -5z"/>
<path d="M9365 890 c3 -5 11 -10 16 -10 6 0 7 5 4 10 -3 6 -11 10 -16 10 -6 0
-7 -4 -4 -10z"/>
<path d="M9453 884 c4 -4 21 -8 38 -9 22 -2 27 0 18 6 -16 10 -66 12 -56 3z"/>
<path d="M9561 874 c0 -11 3 -14 6 -6 3 7 2 16 -1 19 -3 4 -6 -2 -5 -13z"/>
<path d="M9465 851 c3 -5 -3 -12 -12 -14 -10 -3 -2 -5 18 -6 26 -1 36 3 36 14
0 9 -10 15 -24 15 -13 0 -22 -4 -18 -9z"/>
<path d="M9671 844 c13 -16 29 -19 29 -5 0 5 -9 11 -21 14 -16 4 -18 3 -8 -9z"/>
<path d="M9805 840 c-3 -5 1 -10 10 -10 9 0 13 5 10 10 -3 6 -8 10 -10 10 -2
0 -7 -4 -10 -10z"/>
<path d="M9730 829 c0 -5 5 -7 10 -4 6 3 10 8 10 11 0 2 -4 4 -10 4 -5 0 -10
-5 -10 -11z"/>
<path d="M7808 763 c6 -2 18 -2 25 0 6 3 1 5 -13 5 -14 0 -19 -2 -12 -5z"/>
<path d="M7868 763 c12 -2 30 -2 40 0 9 3 -1 5 -23 4 -22 0 -30 -2 -17 -4z"/>
<path d="M7185 683 c-16 -3 -34 -9 -40 -14 -12 -12 86 0 100 12 9 9 -5 10 -60
2z"/>
<path d="M9868 623 c7 -3 16 -2 19 1 4 3 -2 6 -13 5 -11 0 -14 -3 -6 -6z"/>
<path d="M8445 550 c-10 -16 -9 -16 72 -27 52 -6 78 -6 94 3 19 10 14 12 -42
18 -35 4 -76 10 -90 13 -15 3 -30 0 -34 -7z"/>
<path d="M8405 540 c3 -5 10 -10 16 -10 5 0 9 5 9 10 0 6 -7 10 -16 10 -8 0
-12 -4 -9 -10z"/>
<path d="M9158 453 c6 -2 18 -2 25 0 6 3 1 5 -13 5 -14 0 -19 -2 -12 -5z"/>
<path d="M9055 434 c-29 -13 -28 -13 30 -13 33 0 53 3 45 6 -8 3 -22 9 -30 13
-8 4 -28 1 -45 -6z"/>
<path d="M5430 421 c0 -5 -10 -12 -22 -14 -21 -4 -20 -4 3 -6 16 0 29 5 33 14
3 8 1 15 -4 15 -6 0 -10 -4 -10 -9z"/>
<path d="M9960 225 c-18 -21 -6 -109 19 -148 l21 -32 0 98 c0 76 -3 97 -14 97
-7 0 -19 -7 -26 -15z"/>
<path d="M5616 135 c4 -8 1 -15 -5 -15 -22 0 -11 -31 15 -40 14 -6 22 -14 19
-20 -9 -15 22 -12 58 6 21 12 32 13 35 5 5 -14 39 -15 47 0 9 13 64 2 83 -17
7 -8 18 -15 23 -15 5 -1 14 -3 19 -4 6 -1 15 -3 21 -4 8 -1 8 -6 -1 -16 -11
-13 -2 -15 69 -15 45 0 80 3 78 7 -3 5 6 9 20 9 35 3 41 13 18 30 -13 10 -32
13 -55 9 -28 -5 -40 -2 -54 13 -10 12 -37 23 -64 27 -26 3 -61 13 -79 21 -17
8 -72 17 -122 21 -74 5 -91 3 -91 -8 -1 -10 -4 -9 -11 4 -12 21 -31 23 -23 2z"/>
<path d="M5530 90 c0 -5 7 -10 16 -10 8 0 12 5 9 10 -3 6 -10 10 -16 10 -5 0
-9 -4 -9 -10z"/>
<path d="M5393 60 c-2 -17 4 -20 40 -20 31 0 38 3 27 10 -8 5 -24 10 -35 10
-17 0 -17 2 -5 10 12 8 11 10 -5 10 -14 0 -21 -7 -22 -20z"/>
<path d="M6038 73 c7 -3 16 -2 19 1 4 3 -2 6 -13 5 -11 0 -14 -3 -6 -6z"/>
<path d="M2600 60 c0 -5 5 -10 10 -10 6 0 10 5 10 10 0 6 -4 10 -10 10 -5 0
-10 -4 -10 -10z"/>
<path d="M5585 10 c19 -8 73 -14 64 -6 -2 2 -22 6 -44 9 -28 5 -34 4 -20 -3z"/>
</g>
</svg>
