<?xml version="1.0" standalone="no"?>
<!DOCTYPE svg PUBLIC "-//W3C//DTD SVG 20010904//EN"
 "http://www.w3.org/TR/2001/REC-SVG-20010904/DTD/svg10.dtd">
<svg version="1.0" xmlns="http://www.w3.org/2000/svg"
 width="1024.000000pt" height="350.000000pt" viewBox="0 0 1024.000000 350.000000"
 preserveAspectRatio="xMidYMid meet">

<g transform="translate(0.000000,350.000000) scale(0.100000,-0.100000)"
fill="#000000" stroke="none">
<path d="M3987 2786 c-85 -23 -137 -90 -137 -176 0 -151 140 -228 299 -164
l41 16 0 74 0 74 -35 0 c-35 0 -35 0 -35 -45 0 -51 -16 -65 -75 -65 -29 0 -45
8 -71 34 -94 94 18 230 139 168 l37 -20 20 25 c27 35 26 40 -17 62 -53 26
-110 32 -166 17z"/>
<path d="M4611 2785 c-82 -26 -131 -92 -131 -176 0 -75 34 -129 102 -163 65
-33 117 -33 185 -2 68 32 103 89 103 167 0 88 -45 147 -134 174 -59 18 -68 18
-125 0z m130 -93 c24 -21 32 -39 36 -73 5 -41 2 -50 -27 -82 -27 -31 -39 -37
-71 -37 -84 0 -135 95 -89 168 36 58 101 68 151 24z"/>
<path d="M7759 2785 c-117 -37 -166 -179 -97 -281 28 -41 108 -84 158 -84 117
0 200 79 200 191 0 130 -128 216 -261 174z m130 -91 c76 -64 36 -194 -60 -194
-29 0 -47 8 -71 29 -29 26 -33 36 -33 79 0 36 6 56 20 72 41 46 99 52 144 14z"/>
<path d="M5130 2783 c0 -5 23 -66 51 -138 28 -71 57 -149 66 -173 l15 -43 51
3 51 3 63 160 c35 88 66 168 69 178 5 14 -1 17 -40 17 l-45 0 -19 -52 c-11
-29 -29 -84 -42 -123 -12 -38 -26 -74 -30 -78 -4 -5 -24 40 -45 100 -21 59
-42 118 -46 131 -7 18 -16 22 -54 22 -25 0 -45 -3 -45 -7z"/>
<path d="M5780 2610 l0 -180 151 0 150 0 -3 33 -3 32 -102 3 -103 3 0 34 0 34
88 3 87 3 3 38 3 37 -90 0 -91 0 0 35 0 35 100 0 100 0 0 35 0 35 -145 0 -145
0 0 -180z"/>
<path d="M6380 2610 l0 -180 45 0 45 0 0 50 0 50 38 0 c36 0 40 -3 62 -50 l23
-50 54 0 54 0 -36 56 -36 56 31 34 c54 62 35 170 -35 200 -22 9 -71 14 -140
14 l-105 0 0 -180z m211 89 c15 -15 19 -28 14 -47 -9 -38 -32 -52 -87 -52
l-48 0 0 60 0 60 50 0 c37 0 55 -5 71 -21z"/>
<path d="M7000 2610 l0 -180 40 0 40 0 0 105 c0 58 4 105 8 105 4 0 43 -47 86
-105 l78 -105 44 0 44 0 0 180 0 180 -45 0 -44 0 -3 -111 -3 -111 -80 111
c-80 110 -80 110 -122 111 l-43 0 0 -180z"/>
<path d="M8680 2609 l0 -181 118 4 c113 3 120 4 156 32 67 51 92 138 61 213
-37 87 -89 112 -232 113 l-103 0 0 -181z m200 98 c14 -7 33 -29 44 -51 16 -32
17 -44 7 -76 -16 -54 -52 -80 -112 -80 l-49 0 0 110 0 110 43 0 c23 0 53 -6
67 -13z"/>
<path d="M9320 2610 l0 -180 145 0 145 0 0 35 0 35 -100 0 -100 0 0 35 0 34
88 3 87 3 0 35 0 35 -87 3 -88 3 0 34 0 35 100 0 100 0 0 35 0 35 -145 0 -145
0 0 -180z"/>
</g>
</svg>
